<svg xmlns="http://www.w3.org/2000/svg" xmlns:v="https://svgstorm.com"
viewBox = "0 0 212 190"
width="212"
height="190">
<g fill="None" fill-opacity="0.0" stroke="#000000" stroke-opacity="0.00" stroke-width="0.3"><path d="
M 0.00 190.00 
L 212.00 190.00
L 212.00 0.00
L 0.00 0.00
L 0.00 190.00
M 112.00 62.00 
C 112.00 48.52 110.79 34.42 112.00 21.00
C 114.47 13.61 119.64 6.65 128.00 7.00 C 136.37 7.36 143.14 12.70 144.00 21.00
C 144.10 21.97 144.00 23.02 144.00 24.00
C 144.58 26.36 144.21 27.85 144.00 30.00
C 144.00 31.66 144.08 33.34 144.00 35.00
C 143.73 40.23 143.08 47.60 141.00 52.00
C 141.00 52.50 141.00 53.00 141.00 53.00
C 141.45 57.72 140.26 62.25 140.00 67.00
C 139.90 68.78 139.14 70.87 139.00 72.00
C 139.00 73.67 139.00 75.33 139.00 77.00
C 141.24 96.53 160.70 96.57 170.25 84.25 C 179.80 71.92 201.28 65.76 208.92 80.08 C 216.56 94.40 194.74 105.30 185.75 113.75 C 176.77 122.20 173.30 143.28 163.00 150.00
C 162.91 150.48 163.00 151.00 163.00 151.00
C 161.52 154.02 158.05 155.67 156.00 158.00
C 151.35 164.19 150.69 173.60 142.77 177.77 C 134.85 181.94 127.60 187.64 118.00 187.00
C 117.50 186.97 117.00 187.00 117.00 187.00
C 111.91 190.77 99.44 186.45 93.98 185.02 C 88.51 183.60 80.65 179.43 78.00 174.00
C 77.80 173.60 78.00 173.00 78.00 173.00
C 72.74 169.71 73.71 160.52 68.25 156.75 C 62.78 152.98 60.97 146.74 57.23 141.77 C 53.49 136.80 51.48 130.65 47.00 126.00
C 40.72 120.61 32.74 116.51 25.92 112.08 C 19.10 107.65 9.58 104.85 5.00 98.00
C 3.77 96.15 3.02 95.35 3.00 93.00
C -1.28 77.78 15.79 72.07 26.08 79.92 C 36.37 87.77 44.46 92.53 56.00 97.00
C 56.63 92.53 51.92 90.32 50.00 87.00
C 49.80 86.60 50.00 86.00 50.00 86.00
C 41.96 80.38 37.78 71.80 31.25 64.75 C 24.72 57.71 18.18 45.50 24.00 36.00
C 25.36 33.77 27.74 31.23 30.00 30.00
C 44.69 21.99 52.38 38.47 57.77 49.23 C 63.16 59.99 71.21 70.89 78.00 81.00
C 84.26 79.06 76.98 70.65 77.00 66.00
C 76.92 65.51 77.00 65.00 77.00 65.00
C 72.48 56.37 69.15 45.82 65.23 36.77 C 61.31 27.72 57.68 13.27 65.75 5.75 C 73.83 -1.77 87.41 -0.71 93.75 8.25 C 100.09 17.21 98.35 30.67 101.33 40.67 C 104.31 50.67 102.37 65.44 111.00 71.00
C 111.59 68.16 109.78 64.02 112.00 62.00 Z"/>
</g>
<g fill="None" fill-opacity="0.0" stroke="#B9B0B5" stroke-opacity="0.14" stroke-width="0.3"><path d="
M 77.00 65.00 
C 76.71 50.57 63.63 36.56 62.00 22.00
C 61.74 19.70 61.55 16.27 62.00 14.00
C 64.36 1.98 80.06 -0.47 89.00 5.00
C 91.50 6.53 92.79 8.48 94.00 11.00
C 102.46 28.68 98.26 51.07 106.00 69.00
C 107.02 70.73 109.90 73.60 112.00 71.00
C 112.15 70.55 112.00 69.50 112.00 69.00
C 112.00 67.33 112.00 65.67 112.00 64.00
C 112.00 63.50 112.00 62.50 112.00 62.00
C 109.78 64.02 111.59 68.16 111.00 71.00
C 102.37 65.44 104.31 50.67 101.33 40.67 C 98.35 30.67 100.09 17.21 93.75 8.25 C 87.41 -0.71 73.83 -1.77 65.75 5.75 C 57.68 13.27 61.31 27.72 65.23 36.77 C 69.15 45.82 72.48 56.37 77.00 65.00 Z"/>
</g>
<g fill="None" fill-opacity="0.0" stroke="#73404A" stroke-opacity="0.95" stroke-width="0.3"><path d="
M 62.00 14.00 
C 61.90 14.94 61.98 20.99 62.00 22.00
C 63.63 36.56 76.71 50.57 77.00 65.00
C 77.00 65.00 76.92 65.51 77.00 66.00
C 77.37 66.69 78.50 67.38 79.00 68.00
C 81.71 71.35 85.29 78.59 81.74 82.74 C 78.20 86.89 72.86 77.75 73.00 76.00
C 72.73 75.80 72.32 75.20 72.00 75.00
C 67.14 71.99 64.93 65.74 63.00 61.00
C 58.16 53.02 54.25 43.90 49.00 36.00
C 48.28 35.08 44.87 31.47 44.00 31.00
C 39.72 29.07 33.94 29.58 30.00 32.00
C 28.93 32.77 25.70 35.98 25.00 37.00
C 22.51 41.29 22.97 45.83 24.00 50.00
C 26.14 55.14 31.37 60.91 34.00 66.00
C 34.77 66.88 35.34 68.10 36.00 69.00
C 38.55 71.78 40.98 73.76 43.00 77.00
C 43.22 77.36 43.00 78.00 43.00 78.00
C 45.42 79.69 47.02 82.02 49.00 84.00
C 50.72 85.72 52.71 86.87 54.00 89.00
C 54.41 89.67 54.65 90.32 55.00 91.00
C 56.03 93.02 56.99 94.97 58.00 97.00
C 39.99 99.72 28.09 73.09 10.00 78.00
C -0.04 83.59 5.69 98.45 14.08 101.92 C 22.47 105.39 29.77 112.29 38.08 115.92 C 46.39 119.55 52.67 128.13 55.00 135.00
C 56.99 138.49 58.70 142.51 61.00 146.00
C 65.89 151.83 72.83 156.75 74.00 163.00
C 74.39 166.05 76.05 170.51 78.00 173.00
C 80.69 174.12 82.00 177.32 84.00 179.00
C 86.48 180.77 89.24 181.85 92.00 183.00
C 102.17 185.49 118.57 185.65 129.00 184.00
C 133.05 182.70 137.53 180.48 141.00 178.00
C 143.37 176.01 147.10 172.34 149.00 170.00
C 150.93 167.22 151.04 165.09 152.00 162.00
C 153.67 156.64 158.05 153.98 162.00 150.00
C 162.65 149.14 163.34 148.69 164.00 148.00
C 165.06 146.30 165.96 144.66 167.00 143.00
C 168.77 139.21 171.11 135.46 173.00 132.00
C 175.21 126.88 177.83 121.53 181.00 117.00
C 183.67 113.19 187.55 109.95 191.00 107.00
C 193.63 104.75 196.31 102.92 199.00 101.00
C 201.16 99.19 206.74 94.29 208.00 92.00
C 209.58 88.59 209.55 83.42 208.00 80.00
C 207.56 79.19 203.76 75.52 203.00 75.00
C 196.55 71.25 187.49 72.84 182.00 77.00
C 178.72 79.49 175.35 82.44 172.00 85.00
C 171.68 85.24 171.00 85.00 171.00 85.00
C 169.59 87.02 167.96 88.63 166.00 90.00
C 160.45 93.89 153.69 98.10 147.00 94.00
C 144.96 92.75 143.28 90.93 142.00 89.00
C 140.54 86.81 140.10 84.24 139.00 82.00
C 138.87 81.73 138.22 81.30 138.00 81.00
C 132.75 73.87 138.97 55.67 141.00 49.00
C 141.09 46.46 141.61 44.48 142.00 42.00
C 142.03 37.55 139.92 26.17 143.00 22.00
C 143.00 21.50 143.00 21.00 143.00 21.00
C 142.59 19.25 141.88 16.55 141.00 15.00
C 140.33 14.01 136.93 10.62 136.00 10.00
C 125.54 4.05 116.83 11.71 113.00 21.00
C 112.82 21.43 113.00 22.00 113.00 22.00
C 116.48 26.70 113.63 39.98 114.00 46.00 C 114.37 52.02 115.95 65.84 112.00 69.00
C 112.00 69.50 112.15 70.55 112.00 71.00
C 110.41 75.92 106.84 70.95 106.00 69.00
C 98.26 51.07 102.46 28.68 94.00 11.00
C 93.14 9.58 90.41 6.10 89.00 5.00
C 80.06 -0.47 64.36 1.98 62.00 14.00
M 96.00 40.00 
C 97.48 48.78 99.08 57.34 101.00 66.00
C 101.38 67.71 101.39 69.33 102.00 71.00
C 102.42 71.91 105.07 75.44 106.00 76.00
C 110.75 78.20 114.29 76.64 116.00 72.00
C 116.47 69.87 116.84 65.60 117.00 64.00
C 117.00 50.68 114.95 34.32 118.00 22.00
C 120.84 10.53 136.81 9.79 138.92 22.08 C 141.04 34.36 136.53 46.78 135.00 58.00
C 134.83 59.28 135.00 60.71 135.00 62.00
C 135.00 64.77 134.20 67.96 134.00 70.00
C 134.00 83.69 140.81 104.21 157.67 99.67 C 174.53 95.13 175.06 82.13 191.00 78.00
C 193.76 77.29 195.23 76.98 198.00 78.00
C 214.79 84.20 195.74 98.84 187.25 104.25 C 178.77 109.67 170.50 125.66 166.23 134.23 C 161.96 142.80 162.23 144.08 156.25 150.25 C 150.27 156.41 149.23 157.95 141.31 161.31 C 133.38 164.66 132.69 165.97 122.00 167.00 C 111.30 168.03 118.95 173.92 127.67 170.67 C 136.39 167.42 139.65 168.89 147.00 164.00
C 135.39 187.15 90.53 189.97 80.00 165.00
C 84.45 165.95 94.29 174.14 95.00 166.00
C 86.20 163.73 78.28 158.96 71.75 152.25 C 65.23 145.53 62.42 137.41 57.08 129.92 C 51.73 122.43 46.36 116.25 37.30 112.70 C 28.25 109.14 24.40 102.08 13.92 99.08 C 3.44 96.08 8.55 76.60 18.22 81.78 C 27.90 86.95 33.11 89.75 40.70 96.30 C 48.29 102.85 65.20 103.90 61.07 92.93 C 56.94 81.95 50.82 80.58 44.75 72.25 C 38.67 63.93 34.51 59.26 29.03 50.97 C 23.54 42.69 34.74 29.09 42.75 36.25 C 50.75 43.42 51.00 50.27 56.77 59.23 C 62.54 68.18 65.46 70.72 71.77 81.23 C 78.08 91.74 89.58 84.19 85.02 72.98 C 80.47 61.76 78.89 56.23 75.02 45.98 C 71.16 35.72 67.45 28.72 66.00 18.00 C 64.56 7.27 82.39 2.50 88.25 10.75 C 94.11 19.01 93.08 30.50 96.00 40.00 Z"/>
</g>
<g fill="None" fill-opacity="0.0" stroke="#887275" stroke-opacity="0.40" stroke-width="0.3"><path d="
M 94.00 11.00 
C 92.79 8.48 91.50 6.53 89.00 5.00
C 90.41 6.10 93.14 9.58 94.00 11.00 Z"/>
</g>
<g fill="None" fill-opacity="0.0" stroke="#F9F7F7" stroke-opacity="1.00" stroke-width="0.3"><path d="
M 198.00 78.00 
C 196.06 77.60 192.97 77.75 191.00 78.00
C 175.06 82.13 174.53 95.13 157.67 99.67 C 140.81 104.21 134.00 83.69 134.00 70.00
C 134.00 69.50 134.03 68.50 134.00 68.00
C 132.14 64.09 135.54 56.45 135.00 58.00
C 136.53 46.78 141.04 34.36 138.92 22.08 C 136.81 9.79 120.84 10.53 118.00 22.00
C 116.26 36.03 118.62 51.58 117.00 65.00
C 117.26 67.74 116.77 69.93 116.00 72.00
C 114.29 76.64 110.75 78.20 106.00 76.00
C 103.66 74.92 102.77 73.13 102.00 71.00
C 101.39 69.33 101.38 67.71 101.00 66.00
C 99.55 62.90 97.14 59.92 95.69 55.31 C 94.24 50.69 95.96 44.10 96.00 40.00
C 93.08 30.50 94.11 19.01 88.25 10.75 C 82.39 2.50 64.56 7.27 66.00 18.00 C 67.45 28.72 71.16 35.72 75.02 45.98 C 78.89 56.23 80.47 61.76 85.02 72.98 C 89.58 84.19 78.08 91.74 71.77 81.23 C 65.46 70.72 62.54 68.18 56.77 59.23 C 51.00 50.27 50.75 43.42 42.75 36.25 C 34.74 29.09 23.54 42.69 29.03 50.97 C 34.51 59.26 38.67 63.93 44.75 72.25 C 50.82 80.58 56.94 81.95 61.07 92.93 C 65.20 103.90 48.29 102.85 40.70 96.30 C 33.11 89.75 27.90 86.95 18.22 81.78 C 8.55 76.60 3.44 96.08 13.92 99.08 C 24.40 102.08 28.25 109.14 37.30 112.70 C 46.36 116.25 51.73 122.43 57.08 129.92 C 62.42 137.41 65.23 145.53 71.75 152.25 C 78.28 158.96 86.20 163.73 95.00 166.00
C 94.29 174.14 84.45 165.95 80.00 165.00
C 90.53 189.97 135.39 187.15 147.00 164.00
C 139.65 168.89 136.39 167.42 127.67 170.67 C 118.95 173.92 111.30 168.03 122.00 167.00 C 132.69 165.97 133.38 164.66 141.31 161.31 C 149.23 157.95 150.27 156.41 156.25 150.25 C 162.23 144.08 161.96 142.80 166.23 134.23 C 170.50 125.66 178.77 109.67 187.25 104.25 C 195.74 98.84 214.79 84.20 198.00 78.00
M 106.00 147.00 
C 106.61 148.31 103.45 138.34 105.93 133.93 C 108.40 129.52 108.18 124.24 111.00 120.00
C 102.58 121.95 93.99 131.20 84.00 131.00
C 81.13 132.15 70.59 136.76 67.93 133.07 C 65.26 129.39 75.44 127.59 80.22 127.22 C 85.00 126.86 87.83 121.46 93.75 120.75 C 99.66 120.04 112.83 102.86 118.00 107.00
C 118.30 107.24 119.00 107.00 119.00 107.00
C 119.28 107.70 120.68 108.69 120.00 110.00
C 121.54 110.37 122.40 108.57 124.00 109.00
C 126.75 106.60 130.26 103.82 134.00 104.00
C 134.43 110.70 126.58 111.06 123.25 116.25 C 119.92 121.43 115.98 123.63 114.03 130.03 C 112.07 136.42 108.66 140.97 111.78 149.22 C 114.90 157.47 105.54 156.04 106.00 147.00 Z"/>
</g>
<g fill="None" fill-opacity="0.0" stroke="#C1BCC1" stroke-opacity="0.14" stroke-width="0.3"><path d="
M 112.00 21.00 
C 112.00 20.96 113.00 21.00 113.00 21.00
C 116.83 11.71 125.54 4.05 136.00 10.00
C 137.97 11.12 139.91 13.08 141.00 15.00
C 141.88 16.55 142.59 19.25 143.00 21.00
C 143.25 20.75 144.00 21.00 144.00 21.00
C 143.14 12.70 136.37 7.36 128.00 7.00 C 119.64 6.65 114.47 13.61 112.00 21.00 Z"/>
</g>
<g fill="None" fill-opacity="0.0" stroke="#9E8A92" stroke-opacity="0.30" stroke-width="0.3"><path d="
M 141.00 15.00 
C 139.91 13.08 137.97 11.12 136.00 10.00
C 136.93 10.62 140.33 14.01 141.00 15.00 Z"/>
</g>
<g fill="None" fill-opacity="0.0" stroke="#673648" stroke-opacity="0.78" stroke-width="0.3"><path d="
M 62.00 22.00 
C 61.98 20.99 61.90 14.94 62.00 14.00
C 61.55 16.27 61.74 19.70 62.00 22.00 Z"/>
</g>
<g fill="None" fill-opacity="0.0" stroke="#9D898E" stroke-opacity="0.20" stroke-width="0.3"><path d="
M 112.00 62.00 
C 112.00 62.50 112.00 63.50 112.00 64.00
C 113.40 50.80 113.00 35.92 113.00 22.00
C 113.00 22.00 112.82 21.43 113.00 21.00
C 113.00 21.00 112.00 20.96 112.00 21.00
C 110.79 34.42 112.00 48.52 112.00 62.00 Z"/>
</g>
<g fill="None" fill-opacity="0.0" stroke="#8E7A7E" stroke-opacity="0.24" stroke-width="0.3"><path d="
M 143.00 22.00 
C 143.00 26.29 143.34 30.73 143.00 35.00
C 143.04 34.87 144.00 35.00 144.00 35.00
C 144.08 33.34 144.00 31.66 144.00 30.00
C 144.00 28.00 144.00 26.00 144.00 24.00
C 144.00 23.02 144.10 21.97 144.00 21.00
C 144.00 21.00 143.25 20.75 143.00 21.00
C 143.00 21.00 143.00 21.50 143.00 22.00 Z"/>
</g>
<g fill="None" fill-opacity="0.0" stroke="#613740" stroke-opacity="0.77" stroke-width="0.3"><path d="
M 112.00 64.00 
C 112.00 65.67 112.00 67.33 112.00 69.00
C 115.95 65.84 114.37 52.02 114.00 46.00 C 113.63 39.98 116.48 26.70 113.00 22.00
C 113.00 35.92 113.40 50.80 112.00 64.00 Z"/>
</g>
<g fill="None" fill-opacity="0.0" stroke="#D4B4BA" stroke-opacity="1.00" stroke-width="0.3"><path d="
M 117.00 64.00 
C 117.00 64.50 117.00 65.00 117.00 65.00
C 118.62 51.58 116.26 36.03 118.00 22.00
C 114.95 34.32 117.00 50.68 117.00 64.00 Z"/>
</g>
<g fill="None" fill-opacity="0.0" stroke="#684048" stroke-opacity="0.78" stroke-width="0.3"><path d="
M 142.00 42.00 
C 142.38 39.60 142.81 37.42 143.00 35.00
C 143.34 30.73 143.00 26.29 143.00 22.00
C 139.92 26.17 142.03 37.55 142.00 42.00 Z"/>
</g>
<g fill="None" fill-opacity="0.0" stroke="#C2DADA" stroke-opacity="0.03" stroke-width="0.3"><path d="
M 144.00 30.00 
C 144.21 27.85 144.58 26.36 144.00 24.00
C 144.00 26.00 144.00 28.00 144.00 30.00 Z"/>
</g>
<g fill="None" fill-opacity="0.0" stroke="#BEB5B9" stroke-opacity="0.16" stroke-width="0.3"><path d="
M 30.00 30.00 
C 28.66 30.86 24.91 34.74 24.00 36.00
C 18.18 45.50 24.72 57.71 31.25 64.75 C 37.78 71.80 41.96 80.38 50.00 86.00
C 49.57 85.50 49.39 84.42 49.00 84.00
C 47.10 81.97 44.27 80.61 43.00 78.00
C 43.00 78.00 43.22 77.36 43.00 77.00
C 39.96 74.88 38.13 71.90 36.00 69.00
C 35.34 68.10 34.77 66.88 34.00 66.00
C 29.82 61.24 25.55 56.26 24.00 50.00
C 22.97 45.83 22.51 41.29 25.00 37.00
C 26.17 34.99 28.08 33.18 30.00 32.00
C 33.94 29.58 39.72 29.07 44.00 31.00
C 46.06 31.93 47.83 34.23 49.00 36.00
C 54.25 43.90 58.16 53.02 63.00 61.00
C 65.78 65.59 69.70 70.11 72.00 75.00
C 72.32 75.20 72.73 75.80 73.00 76.00
C 75.89 78.18 77.19 82.34 81.00 83.00
C 83.72 77.85 79.08 73.21 79.00 68.00
C 78.50 67.38 77.37 66.69 77.00 66.00
C 76.98 70.65 84.26 79.06 78.00 81.00
C 71.21 70.89 63.16 59.99 57.77 49.23 C 52.38 38.47 44.69 21.99 30.00 30.00 Z"/>
</g>
<g fill="None" fill-opacity="0.0" stroke="#E9ECE9" stroke-opacity="0.05" stroke-width="0.3"><path d="
M 24.00 36.00 
C 24.91 34.74 28.66 30.86 30.00 30.00
C 27.74 31.23 25.36 33.77 24.00 36.00 Z"/>
</g>
<g fill="None" fill-opacity="0.0" stroke="#816470" stroke-opacity="0.60" stroke-width="0.3"><path d="
M 49.00 36.00 
C 47.83 34.23 46.06 31.93 44.00 31.00
C 44.87 31.47 48.28 35.08 49.00 36.00 Z"/>
</g>
<g fill="None" fill-opacity="0.0" stroke="#856F73" stroke-opacity="0.69" stroke-width="0.3"><path d="
M 25.00 37.00 
C 25.70 35.98 28.93 32.77 30.00 32.00
C 28.08 33.18 26.17 34.99 25.00 37.00 Z"/>
</g>
<g fill="None" fill-opacity="0.0" stroke="#B5ACAD" stroke-opacity="0.14" stroke-width="0.3"><path d="
M 142.00 42.00 
C 141.61 44.48 141.09 46.46 141.00 49.00
C 140.97 50.00 141.00 51.00 141.00 52.00
C 143.08 47.60 143.73 40.23 144.00 35.00
C 144.00 35.00 143.04 34.87 143.00 35.00
C 142.81 37.42 142.38 39.60 142.00 42.00 Z"/>
</g>
<g fill="None" fill-opacity="0.0" stroke="#E9D4D6" stroke-opacity="1.00" stroke-width="0.3"><path d="
M 101.00 66.00 
C 99.08 57.34 97.48 48.78 96.00 40.00
C 95.96 44.10 94.24 50.69 95.69 55.31 C 97.14 59.92 99.55 62.90 101.00 66.00 Z"/>
</g>
<g fill="None" fill-opacity="0.0" stroke="#6B4049" stroke-opacity="0.78" stroke-width="0.3"><path d="
M 138.00 81.00 
C 137.28 76.01 138.49 70.22 139.00 66.00
C 138.60 61.80 139.42 56.36 141.00 53.00
C 141.00 53.00 141.00 52.50 141.00 52.00
C 141.00 51.00 140.97 50.00 141.00 49.00
C 138.97 55.67 132.75 73.87 138.00 81.00 Z"/>
</g>
<g fill="None" fill-opacity="0.0" stroke="#744955" stroke-opacity="0.69" stroke-width="0.3"><path d="
M 34.00 66.00 
C 31.37 60.91 26.14 55.14 24.00 50.00
C 25.55 56.26 29.82 61.24 34.00 66.00 Z"/>
</g>
<g fill="None" fill-opacity="0.0" stroke="#B1A4A6" stroke-opacity="0.16" stroke-width="0.3"><path d="
M 139.00 66.00 
C 139.05 66.50 139.00 67.00 139.00 67.00
C 139.25 67.25 140.00 67.00 140.00 67.00
C 140.26 62.25 141.45 57.72 141.00 53.00
C 139.42 56.36 138.60 61.80 139.00 66.00 Z"/>
</g>
<g fill="None" fill-opacity="0.0" stroke="#EED5D8" stroke-opacity="1.00" stroke-width="0.3"><path d="
M 134.00 68.00 
C 133.86 65.70 134.79 63.56 135.00 62.00
C 135.00 60.71 134.83 59.28 135.00 58.00
C 135.54 56.45 132.14 64.09 134.00 68.00 Z"/>
</g>
<g fill="None" fill-opacity="0.0" stroke="#6A424C" stroke-opacity="0.74" stroke-width="0.3"><path d="
M 72.00 75.00 
C 69.70 70.11 65.78 65.59 63.00 61.00
C 64.93 65.74 67.14 71.99 72.00 75.00 Z"/>
</g>
<g fill="None" fill-opacity="0.0" stroke="#A77C85" stroke-opacity="1.00" stroke-width="0.3"><path d="
M 134.00 68.00 
C 134.03 68.50 134.00 69.50 134.00 70.00
C 134.20 67.96 135.00 64.77 135.00 62.00
C 134.79 63.56 133.86 65.70 134.00 68.00 Z"/>
</g>
<g fill="None" fill-opacity="0.0" stroke="#9B7E84" stroke-opacity="1.00" stroke-width="0.3"><path d="
M 116.00 72.00 
C 116.77 69.93 117.26 67.74 117.00 65.00
C 117.00 65.00 117.00 64.50 117.00 64.00
C 116.84 65.60 116.47 69.87 116.00 72.00 Z"/>
</g>
<g fill="None" fill-opacity="0.0" stroke="#8E797C" stroke-opacity="0.39" stroke-width="0.3"><path d="
M 138.00 81.00 
C 138.22 81.30 138.87 81.73 139.00 82.00
C 138.80 80.39 139.00 78.62 139.00 77.00
C 139.00 75.33 139.00 73.67 139.00 72.00
C 139.00 70.33 139.00 68.67 139.00 67.00
C 139.00 67.00 139.05 66.50 139.00 66.00
C 138.49 70.22 137.28 76.01 138.00 81.00 Z"/>
</g>
<g fill="None" fill-opacity="0.0" stroke="#E6E6E6" stroke-opacity="0.03" stroke-width="0.3"><path d="
M 139.00 72.00 
C 139.14 70.87 139.90 68.78 140.00 67.00
C 140.00 67.00 139.25 67.25 139.00 67.00
C 139.00 68.67 139.00 70.33 139.00 72.00 Z"/>
</g>
<g fill="None" fill-opacity="0.0" stroke="#70454E" stroke-opacity="0.72" stroke-width="0.3"><path d="
M 73.00 76.00 
C 72.86 77.75 78.20 86.89 81.74 82.74 C 85.29 78.59 81.71 71.35 79.00 68.00
C 79.08 73.21 83.72 77.85 81.00 83.00
C 77.19 82.34 75.89 78.18 73.00 76.00 Z"/>
</g>
<g fill="None" fill-opacity="0.0" stroke="#76595E" stroke-opacity="0.51" stroke-width="0.3"><path d="
M 43.00 77.00 
C 40.98 73.76 38.55 71.78 36.00 69.00
C 38.13 71.90 39.96 74.88 43.00 77.00 Z"/>
</g>
<g fill="None" fill-opacity="0.0" stroke="#845E67" stroke-opacity="0.47" stroke-width="0.3"><path d="
M 112.00 71.00 
C 109.90 73.60 107.02 70.73 106.00 69.00
C 106.84 70.95 110.41 75.92 112.00 71.00 Z"/>
</g>
<g fill="None" fill-opacity="0.0" stroke="#B89297" stroke-opacity="1.00" stroke-width="0.3"><path d="
M 106.00 76.00 
C 105.07 75.44 102.42 71.91 102.00 71.00
C 102.77 73.13 103.66 74.92 106.00 76.00 Z"/>
</g>
<g fill="None" fill-opacity="0.0" stroke="#C3BCBE" stroke-opacity="0.15" stroke-width="0.3"><path d="
M 139.00 77.00 
C 139.00 78.62 138.80 80.39 139.00 82.00
C 140.10 84.24 140.54 86.81 142.00 89.00
C 142.93 90.19 145.85 93.17 147.00 94.00
C 153.69 98.10 160.45 93.89 166.00 90.00
C 167.81 88.51 168.75 86.10 171.00 85.00
C 171.00 85.00 171.68 85.24 172.00 85.00
C 174.72 81.10 178.32 79.26 182.00 77.00
C 187.49 72.84 196.55 71.25 203.00 75.00
C 204.84 76.07 207.13 78.07 208.00 80.00
C 209.55 83.42 209.58 88.59 208.00 92.00
C 206.47 95.30 201.84 98.97 199.00 101.00
C 196.31 102.92 193.63 104.75 191.00 107.00
C 187.92 110.08 183.69 113.73 181.00 117.00
C 177.83 121.53 175.21 126.88 173.00 132.00
C 171.33 135.86 169.10 139.64 167.00 143.00
C 165.96 144.66 165.06 146.30 164.00 148.00
C 163.61 148.63 163.14 149.25 163.00 150.00
C 173.30 143.28 176.77 122.20 185.75 113.75 C 194.74 105.30 216.56 94.40 208.92 80.08 C 201.28 65.76 179.80 71.92 170.25 84.25 C 160.70 96.57 141.24 96.53 139.00 77.00 Z"/>
</g>
<g fill="None" fill-opacity="0.0" stroke="#7E6A72" stroke-opacity="0.41" stroke-width="0.3"><path d="
M 208.00 80.00 
C 207.13 78.07 204.84 76.07 203.00 75.00
C 203.76 75.52 207.56 79.19 208.00 80.00 Z"/>
</g>
<g fill="None" fill-opacity="0.0" stroke="#BDB5B8" stroke-opacity="0.16" stroke-width="0.3"><path d="
M 3.00 93.00 
C 3.00 92.50 3.03 91.50 3.00 91.00
C 2.61 85.38 4.64 79.98 10.00 78.00
C 28.09 73.09 39.99 99.72 58.00 97.00
C 56.99 94.97 56.03 93.02 55.00 91.00
C 53.90 89.59 51.44 88.01 50.00 87.00
C 51.92 90.32 56.63 92.53 56.00 97.00
C 44.46 92.53 36.37 87.77 26.08 79.92 C 15.79 72.07 -1.28 77.78 3.00 93.00 Z"/>
</g>
<g fill="None" fill-opacity="0.0" stroke="#765B5E" stroke-opacity="0.66" stroke-width="0.3"><path d="
M 172.00 85.00 
C 175.35 82.44 178.72 79.49 182.00 77.00
C 178.32 79.26 174.72 81.10 172.00 85.00 Z"/>
</g>
<g fill="None" fill-opacity="0.0" stroke="#BA9097" stroke-opacity="1.00" stroke-width="0.3"><path d="
M 191.00 78.00 
C 192.97 77.75 196.06 77.60 198.00 78.00
C 195.23 76.98 193.76 77.29 191.00 78.00 Z"/>
</g>
<g fill="None" fill-opacity="0.0" stroke="#6A3D48" stroke-opacity="0.74" stroke-width="0.3"><path d="
M 3.00 91.00 
C 3.36 93.90 6.38 98.95 9.00 101.00
C 22.49 109.73 41.02 115.57 51.00 129.00
C 52.41 130.89 53.95 133.16 55.00 135.00
C 52.67 128.13 46.39 119.55 38.08 115.92 C 29.77 112.29 22.47 105.39 14.08 101.92 C 5.69 98.45 -0.04 83.59 10.00 78.00
C 4.64 79.98 2.61 85.38 3.00 91.00 Z"/>
</g>
<g fill="None" fill-opacity="0.0" stroke="#8F6F7B" stroke-opacity="0.30" stroke-width="0.3"><path d="
M 49.00 84.00 
C 47.02 82.02 45.42 79.69 43.00 78.00
C 44.27 80.61 47.10 81.97 49.00 84.00 Z"/>
</g>
<g fill="None" fill-opacity="0.0" stroke="#6A444F" stroke-opacity="0.64" stroke-width="0.3"><path d="
M 50.00 86.00 
C 50.97 87.13 53.07 87.92 54.00 89.00
C 52.71 86.87 50.72 85.72 49.00 84.00
C 49.39 84.42 49.57 85.50 50.00 86.00 Z"/>
</g>
<g fill="None" fill-opacity="0.0" stroke="#8A7174" stroke-opacity="0.51" stroke-width="0.3"><path d="
M 166.00 90.00 
C 167.96 88.63 169.59 87.02 171.00 85.00
C 168.75 86.10 167.81 88.51 166.00 90.00 Z"/>
</g>
<g fill="None" fill-opacity="0.0" stroke="#877279" stroke-opacity="0.27" stroke-width="0.3"><path d="
M 50.00 87.00 
C 51.44 88.01 53.90 89.59 55.00 91.00
C 54.65 90.32 54.41 89.67 54.00 89.00
C 53.07 87.92 50.97 87.13 50.00 86.00
C 50.00 86.00 49.80 86.60 50.00 87.00 Z"/>
</g>
<g fill="None" fill-opacity="0.0" stroke="#957681" stroke-opacity="0.45" stroke-width="0.3"><path d="
M 147.00 94.00 
C 145.85 93.17 142.93 90.19 142.00 89.00
C 143.28 90.93 144.96 92.75 147.00 94.00 Z"/>
</g>
<g fill="None" fill-opacity="0.0" stroke="#806770" stroke-opacity="0.24" stroke-width="0.3"><path d="
M 3.00 93.00 
C 3.02 95.35 3.77 96.15 5.00 98.00
C 5.90 99.09 7.84 100.25 9.00 101.00
C 6.38 98.95 3.36 93.90 3.00 91.00
C 3.03 91.50 3.00 92.50 3.00 93.00 Z"/>
</g>
<g fill="None" fill-opacity="0.0" stroke="#7B585C" stroke-opacity="0.46" stroke-width="0.3"><path d="
M 199.00 101.00 
C 201.84 98.97 206.47 95.30 208.00 92.00
C 206.74 94.29 201.16 99.19 199.00 101.00 Z"/>
</g>
<g fill="None" fill-opacity="0.0" stroke="#A6969B" stroke-opacity="0.12" stroke-width="0.3"><path d="
M 47.00 126.00 
C 48.16 126.99 50.02 127.94 51.00 129.00
C 41.02 115.57 22.49 109.73 9.00 101.00
C 7.84 100.25 5.90 99.09 5.00 98.00
C 9.58 104.85 19.10 107.65 25.92 112.08 C 32.74 116.51 40.72 120.61 47.00 126.00 Z"/>
</g>
<g fill="None" fill-opacity="0.0" stroke="#78434C" stroke-opacity="1.00" stroke-width="0.3"><path d="
M 124.00 109.00 
C 113.68 118.00 103.98 132.86 106.00 147.00
C 105.54 156.04 114.90 157.47 111.78 149.22 C 108.66 140.97 112.07 136.42 114.03 130.03 C 115.98 123.63 119.92 121.43 123.25 116.25 C 126.58 111.06 134.43 110.70 134.00 104.00
C 130.26 103.82 126.75 106.60 124.00 109.00 Z"/>
</g>
<g fill="None" fill-opacity="0.0" stroke="#77434D" stroke-opacity="1.00" stroke-width="0.3"><path d="
M 84.00 131.00 
C 94.75 126.68 104.64 119.68 114.00 113.00
C 115.80 111.49 117.33 109.06 118.00 107.00
C 112.83 102.86 99.66 120.04 93.75 120.75 C 87.83 121.46 85.00 126.86 80.22 127.22 C 75.44 127.59 65.26 129.39 67.93 133.07 C 70.59 136.76 81.13 132.15 84.00 131.00 Z"/>
</g>
<g fill="None" fill-opacity="0.0" stroke="#A3838A" stroke-opacity="1.00" stroke-width="0.3"><path d="
M 114.00 113.00 
C 116.13 111.48 118.71 109.72 119.00 107.00
C 119.00 107.00 118.30 107.24 118.00 107.00
C 117.33 109.06 115.80 111.49 114.00 113.00 Z"/>
</g>
<g fill="None" fill-opacity="0.0" stroke="#ECD6DB" stroke-opacity="1.00" stroke-width="0.3"><path d="
M 114.00 113.00 
C 104.64 119.68 94.75 126.68 84.00 131.00
C 93.99 131.20 102.58 121.95 111.00 120.00
C 108.18 124.24 108.40 129.52 105.93 133.93 C 103.45 138.34 106.61 148.31 106.00 147.00
C 103.98 132.86 113.68 118.00 124.00 109.00
C 122.40 108.57 121.54 110.37 120.00 110.00
C 120.68 108.69 119.28 107.70 119.00 107.00
C 118.71 109.72 116.13 111.48 114.00 113.00 Z"/>
</g>
<g fill="None" fill-opacity="0.0" stroke="#937D7F" stroke-opacity="0.38" stroke-width="0.3"><path d="
M 181.00 117.00 
C 183.69 113.73 187.92 110.08 191.00 107.00
C 187.55 109.95 183.67 113.19 181.00 117.00 Z"/>
</g>
<g fill="None" fill-opacity="0.0" stroke="#C6BBC1" stroke-opacity="0.11" stroke-width="0.3"><path d="
M 78.00 173.00 
C 76.05 170.51 74.39 166.05 74.00 163.00
C 73.94 162.51 74.15 161.45 74.00 161.00
C 71.80 158.16 68.20 155.95 66.00 153.00
C 64.30 150.71 62.56 148.36 61.00 146.00
C 58.70 142.51 56.99 138.49 55.00 135.00
C 53.95 133.16 52.41 130.89 51.00 129.00
C 50.02 127.94 48.16 126.99 47.00 126.00
C 51.48 130.65 53.49 136.80 57.23 141.77 C 60.97 146.74 62.78 152.98 68.25 156.75 C 73.71 160.52 72.74 169.71 78.00 173.00 Z"/>
</g>
<g fill="None" fill-opacity="0.0" stroke="#7F6068" stroke-opacity="0.58" stroke-width="0.3"><path d="
M 167.00 143.00 
C 169.10 139.64 171.33 135.86 173.00 132.00
C 171.11 135.46 168.77 139.21 167.00 143.00 Z"/>
</g>
<g fill="None" fill-opacity="0.0" stroke="#6E4E56" stroke-opacity="0.67" stroke-width="0.3"><path d="
M 66.00 153.00 
C 68.21 155.53 72.85 157.65 74.00 161.00
C 74.15 161.45 73.94 162.51 74.00 163.00
C 72.83 156.75 65.89 151.83 61.00 146.00
C 62.56 148.36 64.30 150.71 66.00 153.00 Z"/>
</g>
<g fill="None" fill-opacity="0.0" stroke="#ACA0A6" stroke-opacity="0.16" stroke-width="0.3"><path d="
M 162.00 150.00 
C 158.90 154.06 153.74 157.56 152.00 162.00
C 151.04 165.09 150.93 167.22 149.00 170.00
C 146.91 173.01 143.92 175.91 141.00 178.00
C 137.53 180.48 133.05 182.70 129.00 184.00
C 125.48 185.13 121.82 185.79 118.00 186.00
C 117.99 186.00 118.00 187.00 118.00 187.00
C 127.60 187.64 134.85 181.94 142.77 177.77 C 150.69 173.60 151.35 164.19 156.00 158.00
C 157.97 155.37 160.34 152.86 163.00 151.00
C 163.00 151.00 162.91 150.48 163.00 150.00
C 163.14 149.25 163.61 148.63 164.00 148.00
C 163.34 148.69 162.65 149.14 162.00 150.00 Z"/>
</g>
<g fill="None" fill-opacity="0.0" stroke="#744F56" stroke-opacity="0.62" stroke-width="0.3"><path d="
M 152.00 162.00 
C 153.74 157.56 158.90 154.06 162.00 150.00
C 158.05 153.98 153.67 156.64 152.00 162.00 Z"/>
</g>
<g fill="None" fill-opacity="0.0" stroke="#E6E6E6" stroke-opacity="0.03" stroke-width="0.3"><path d="
M 156.00 158.00 
C 158.05 155.67 161.52 154.02 163.00 151.00
C 160.34 152.86 157.97 155.37 156.00 158.00 Z"/>
</g>
<g fill="None" fill-opacity="0.0" stroke="#9C878F" stroke-opacity="0.29" stroke-width="0.3"><path d="
M 74.00 161.00 
C 72.85 157.65 68.21 155.53 66.00 153.00
C 68.20 155.95 71.80 158.16 74.00 161.00 Z"/>
</g>
<g fill="None" fill-opacity="0.0" stroke="#6D4A55" stroke-opacity="0.56" stroke-width="0.3"><path d="
M 141.00 178.00 
C 143.92 175.91 146.91 173.01 149.00 170.00
C 147.10 172.34 143.37 176.01 141.00 178.00 Z"/>
</g>
<g fill="None" fill-opacity="0.0" stroke="#907E83" stroke-opacity="0.23" stroke-width="0.3"><path d="
M 78.00 174.00 
C 80.14 175.49 81.93 177.52 84.00 179.00
C 82.00 177.32 80.69 174.12 78.00 173.00
C 78.00 173.00 77.80 173.60 78.00 174.00 Z"/>
</g>
<g fill="None" fill-opacity="0.0" stroke="#BCB8BB" stroke-opacity="0.10" stroke-width="0.3"><path d="
M 117.00 187.00 
C 113.20 187.00 109.07 186.37 106.00 186.00
C 100.65 185.89 96.79 185.00 92.00 183.00
C 89.24 181.85 86.48 180.77 84.00 179.00
C 81.93 177.52 80.14 175.49 78.00 174.00
C 80.65 179.43 88.51 183.60 93.98 185.02 C 99.44 186.45 111.91 190.77 117.00 187.00 Z"/>
</g>
<g fill="None" fill-opacity="0.0" stroke="#6B4049" stroke-opacity="0.77" stroke-width="0.3"><path d="
M 92.00 183.00 
C 96.79 185.00 100.65 185.89 106.00 186.00
C 109.96 186.08 114.04 186.21 118.00 186.00
C 121.82 185.79 125.48 185.13 129.00 184.00
C 118.57 185.65 102.17 185.49 92.00 183.00 Z"/>
</g>
<g fill="None" fill-opacity="0.0" stroke="#81656C" stroke-opacity="0.45" stroke-width="0.3"><path d="
M 117.00 187.00 
C 117.00 187.00 117.50 186.97 118.00 187.00
C 118.00 187.00 117.99 186.00 118.00 186.00
C 114.04 186.21 109.96 186.08 106.00 186.00
C 109.07 186.37 113.20 187.00 117.00 187.00 Z"/>
</g>
<g fill="#000000" fill-opacity="0.00" stroke="None">
<path d="
M 0.00 190.00 
L 212.00 190.00
L 212.00 0.00
L 0.00 0.00
L 0.00 190.00
M 112.00 62.00 
C 112.00 48.52 110.79 34.42 112.00 21.00
C 114.47 13.61 119.64 6.65 128.00 7.00 C 136.37 7.36 143.14 12.70 144.00 21.00
C 144.10 21.97 144.00 23.02 144.00 24.00
C 144.58 26.36 144.21 27.85 144.00 30.00
C 144.00 31.66 144.08 33.34 144.00 35.00
C 143.73 40.23 143.08 47.60 141.00 52.00
C 141.00 52.50 141.00 53.00 141.00 53.00
C 141.45 57.72 140.26 62.25 140.00 67.00
C 139.90 68.78 139.14 70.87 139.00 72.00
C 139.00 73.67 139.00 75.33 139.00 77.00
C 141.24 96.53 160.70 96.57 170.25 84.25 C 179.80 71.92 201.28 65.76 208.92 80.08 C 216.56 94.40 194.74 105.30 185.75 113.75 C 176.77 122.20 173.30 143.28 163.00 150.00
C 162.91 150.48 163.00 151.00 163.00 151.00
C 161.52 154.02 158.05 155.67 156.00 158.00
C 151.35 164.19 150.69 173.60 142.77 177.77 C 134.85 181.94 127.60 187.64 118.00 187.00
C 117.50 186.97 117.00 187.00 117.00 187.00
C 111.91 190.77 99.44 186.45 93.98 185.02 C 88.51 183.60 80.65 179.43 78.00 174.00
C 77.80 173.60 78.00 173.00 78.00 173.00
C 72.74 169.71 73.71 160.52 68.25 156.75 C 62.78 152.98 60.97 146.74 57.23 141.77 C 53.49 136.80 51.48 130.65 47.00 126.00
C 40.72 120.61 32.74 116.51 25.92 112.08 C 19.10 107.65 9.58 104.85 5.00 98.00
C 3.77 96.15 3.02 95.35 3.00 93.00
C -1.28 77.78 15.79 72.07 26.08 79.92 C 36.37 87.77 44.46 92.53 56.00 97.00
C 56.63 92.53 51.92 90.32 50.00 87.00
C 49.80 86.60 50.00 86.00 50.00 86.00
C 41.96 80.38 37.78 71.80 31.25 64.75 C 24.72 57.71 18.18 45.50 24.00 36.00
C 25.36 33.77 27.74 31.23 30.00 30.00
C 44.69 21.99 52.38 38.47 57.77 49.23 C 63.16 59.99 71.21 70.89 78.00 81.00
C 84.26 79.06 76.98 70.65 77.00 66.00
C 76.92 65.51 77.00 65.00 77.00 65.00
C 72.48 56.37 69.15 45.82 65.23 36.77 C 61.31 27.72 57.68 13.27 65.75 5.75 C 73.83 -1.77 87.41 -0.71 93.75 8.25 C 100.09 17.21 98.35 30.67 101.33 40.67 C 104.31 50.67 102.37 65.44 111.00 71.00
C 111.59 68.16 109.78 64.02 112.00 62.00 Z"/>
</g>
<g fill="#B9B0B5" fill-opacity="0.14" stroke="None">
<path d="
M 77.00 65.00 
C 76.71 50.57 63.63 36.56 62.00 22.00
C 61.74 19.70 61.55 16.27 62.00 14.00
C 64.36 1.98 80.06 -0.47 89.00 5.00
C 91.50 6.53 92.79 8.48 94.00 11.00
C 102.46 28.68 98.26 51.07 106.00 69.00
C 107.02 70.73 109.90 73.60 112.00 71.00
C 112.15 70.55 112.00 69.50 112.00 69.00
C 112.00 67.33 112.00 65.67 112.00 64.00
C 112.00 63.50 112.00 62.50 112.00 62.00
C 109.78 64.02 111.59 68.16 111.00 71.00
C 102.37 65.44 104.31 50.67 101.33 40.67 C 98.35 30.67 100.09 17.21 93.75 8.25 C 87.41 -0.71 73.83 -1.77 65.75 5.75 C 57.68 13.27 61.31 27.72 65.23 36.77 C 69.15 45.82 72.48 56.37 77.00 65.00 Z"/>
</g>
<g fill="#73404A" fill-opacity="0.95" stroke="None">
<path d="
M 62.00 14.00 
C 61.90 14.94 61.98 20.99 62.00 22.00
C 63.63 36.56 76.71 50.57 77.00 65.00
C 77.00 65.00 76.92 65.51 77.00 66.00
C 77.37 66.69 78.50 67.38 79.00 68.00
C 81.71 71.35 85.29 78.59 81.74 82.74 C 78.20 86.89 72.86 77.75 73.00 76.00
C 72.73 75.80 72.32 75.20 72.00 75.00
C 67.14 71.99 64.93 65.74 63.00 61.00
C 58.16 53.02 54.25 43.90 49.00 36.00
C 48.28 35.08 44.87 31.47 44.00 31.00
C 39.72 29.07 33.94 29.58 30.00 32.00
C 28.93 32.77 25.70 35.98 25.00 37.00
C 22.51 41.29 22.97 45.83 24.00 50.00
C 26.14 55.14 31.37 60.91 34.00 66.00
C 34.77 66.88 35.34 68.10 36.00 69.00
C 38.55 71.78 40.98 73.76 43.00 77.00
C 43.22 77.36 43.00 78.00 43.00 78.00
C 45.42 79.69 47.02 82.02 49.00 84.00
C 50.72 85.72 52.71 86.87 54.00 89.00
C 54.41 89.67 54.65 90.32 55.00 91.00
C 56.03 93.02 56.99 94.97 58.00 97.00
C 39.99 99.72 28.09 73.09 10.00 78.00
C -0.04 83.59 5.69 98.45 14.08 101.92 C 22.47 105.39 29.77 112.29 38.08 115.92 C 46.39 119.55 52.67 128.13 55.00 135.00
C 56.99 138.49 58.70 142.51 61.00 146.00
C 65.89 151.83 72.83 156.75 74.00 163.00
C 74.39 166.05 76.05 170.51 78.00 173.00
C 80.69 174.12 82.00 177.32 84.00 179.00
C 86.48 180.77 89.24 181.85 92.00 183.00
C 102.17 185.49 118.57 185.65 129.00 184.00
C 133.05 182.70 137.53 180.48 141.00 178.00
C 143.37 176.01 147.10 172.34 149.00 170.00
C 150.93 167.22 151.04 165.09 152.00 162.00
C 153.67 156.64 158.05 153.98 162.00 150.00
C 162.65 149.14 163.34 148.69 164.00 148.00
C 165.06 146.30 165.96 144.66 167.00 143.00
C 168.77 139.21 171.11 135.46 173.00 132.00
C 175.21 126.88 177.83 121.53 181.00 117.00
C 183.67 113.19 187.55 109.95 191.00 107.00
C 193.63 104.75 196.31 102.92 199.00 101.00
C 201.16 99.19 206.74 94.29 208.00 92.00
C 209.58 88.59 209.55 83.42 208.00 80.00
C 207.56 79.19 203.76 75.52 203.00 75.00
C 196.55 71.25 187.49 72.84 182.00 77.00
C 178.72 79.49 175.35 82.44 172.00 85.00
C 171.68 85.24 171.00 85.00 171.00 85.00
C 169.59 87.02 167.96 88.63 166.00 90.00
C 160.45 93.89 153.69 98.10 147.00 94.00
C 144.96 92.75 143.28 90.93 142.00 89.00
C 140.54 86.81 140.10 84.24 139.00 82.00
C 138.87 81.73 138.22 81.30 138.00 81.00
C 132.75 73.87 138.97 55.67 141.00 49.00
C 141.09 46.46 141.61 44.48 142.00 42.00
C 142.03 37.55 139.92 26.17 143.00 22.00
C 143.00 21.50 143.00 21.00 143.00 21.00
C 142.59 19.25 141.88 16.55 141.00 15.00
C 140.33 14.01 136.93 10.62 136.00 10.00
C 125.54 4.05 116.83 11.71 113.00 21.00
C 112.82 21.43 113.00 22.00 113.00 22.00
C 116.48 26.70 113.63 39.98 114.00 46.00 C 114.37 52.02 115.95 65.84 112.00 69.00
C 112.00 69.50 112.15 70.55 112.00 71.00
C 110.41 75.92 106.84 70.95 106.00 69.00
C 98.26 51.07 102.46 28.68 94.00 11.00
C 93.14 9.58 90.41 6.10 89.00 5.00
C 80.06 -0.47 64.36 1.98 62.00 14.00
M 96.00 40.00 
C 97.48 48.78 99.08 57.34 101.00 66.00
C 101.38 67.71 101.39 69.33 102.00 71.00
C 102.42 71.91 105.07 75.44 106.00 76.00
C 110.75 78.20 114.29 76.64 116.00 72.00
C 116.47 69.87 116.84 65.60 117.00 64.00
C 117.00 50.68 114.95 34.32 118.00 22.00
C 120.84 10.53 136.81 9.79 138.92 22.08 C 141.04 34.36 136.53 46.78 135.00 58.00
C 134.83 59.28 135.00 60.71 135.00 62.00
C 135.00 64.77 134.20 67.96 134.00 70.00
C 134.00 83.69 140.81 104.21 157.67 99.67 C 174.53 95.13 175.06 82.13 191.00 78.00
C 193.76 77.29 195.23 76.98 198.00 78.00
C 214.79 84.20 195.74 98.84 187.25 104.25 C 178.77 109.67 170.50 125.66 166.23 134.23 C 161.96 142.80 162.23 144.08 156.25 150.25 C 150.27 156.41 149.23 157.95 141.31 161.31 C 133.38 164.66 132.69 165.97 122.00 167.00 C 111.30 168.03 118.95 173.92 127.67 170.67 C 136.39 167.42 139.65 168.89 147.00 164.00
C 135.39 187.15 90.53 189.97 80.00 165.00
C 84.45 165.95 94.29 174.14 95.00 166.00
C 86.20 163.73 78.28 158.96 71.75 152.25 C 65.23 145.53 62.42 137.41 57.08 129.92 C 51.73 122.43 46.36 116.25 37.30 112.70 C 28.25 109.14 24.40 102.08 13.92 99.08 C 3.44 96.08 8.55 76.60 18.22 81.78 C 27.90 86.95 33.11 89.75 40.70 96.30 C 48.29 102.85 65.20 103.90 61.07 92.93 C 56.94 81.95 50.82 80.58 44.75 72.25 C 38.67 63.93 34.51 59.26 29.03 50.97 C 23.54 42.69 34.74 29.09 42.75 36.25 C 50.75 43.42 51.00 50.27 56.77 59.23 C 62.54 68.18 65.46 70.72 71.77 81.23 C 78.08 91.74 89.58 84.19 85.02 72.98 C 80.47 61.76 78.89 56.23 75.02 45.98 C 71.16 35.72 67.45 28.72 66.00 18.00 C 64.56 7.27 82.39 2.50 88.25 10.75 C 94.11 19.01 93.08 30.50 96.00 40.00 Z"/>
</g>
<g fill="#887275" fill-opacity="0.40" stroke="None">
<path d="
M 94.00 11.00 
C 92.79 8.48 91.50 6.53 89.00 5.00
C 90.41 6.10 93.14 9.58 94.00 11.00 Z"/>
</g>
<g fill="#F9F7F7" fill-opacity="1.00" stroke="None">
<path d="
M 198.00 78.00 
C 196.06 77.60 192.97 77.75 191.00 78.00
C 175.06 82.13 174.53 95.13 157.67 99.67 C 140.81 104.21 134.00 83.69 134.00 70.00
C 134.00 69.50 134.03 68.50 134.00 68.00
C 132.14 64.09 135.54 56.45 135.00 58.00
C 136.53 46.78 141.04 34.36 138.92 22.08 C 136.81 9.79 120.84 10.53 118.00 22.00
C 116.26 36.03 118.62 51.58 117.00 65.00
C 117.26 67.74 116.77 69.93 116.00 72.00
C 114.29 76.64 110.75 78.20 106.00 76.00
C 103.66 74.92 102.77 73.13 102.00 71.00
C 101.39 69.33 101.38 67.71 101.00 66.00
C 99.55 62.90 97.14 59.92 95.69 55.31 C 94.24 50.69 95.96 44.10 96.00 40.00
C 93.08 30.50 94.11 19.01 88.25 10.75 C 82.39 2.50 64.56 7.27 66.00 18.00 C 67.45 28.72 71.16 35.72 75.02 45.98 C 78.89 56.23 80.47 61.76 85.02 72.98 C 89.58 84.19 78.08 91.74 71.77 81.23 C 65.46 70.72 62.54 68.18 56.77 59.23 C 51.00 50.27 50.75 43.42 42.75 36.25 C 34.74 29.09 23.54 42.69 29.03 50.97 C 34.51 59.26 38.67 63.93 44.75 72.25 C 50.82 80.58 56.94 81.95 61.07 92.93 C 65.20 103.90 48.29 102.85 40.70 96.30 C 33.11 89.75 27.90 86.95 18.22 81.78 C 8.55 76.60 3.44 96.08 13.92 99.08 C 24.40 102.08 28.25 109.14 37.30 112.70 C 46.36 116.25 51.73 122.43 57.08 129.92 C 62.42 137.41 65.23 145.53 71.75 152.25 C 78.28 158.96 86.20 163.73 95.00 166.00
C 94.29 174.14 84.45 165.95 80.00 165.00
C 90.53 189.97 135.39 187.15 147.00 164.00
C 139.65 168.89 136.39 167.42 127.67 170.67 C 118.95 173.92 111.30 168.03 122.00 167.00 C 132.69 165.97 133.38 164.66 141.31 161.31 C 149.23 157.95 150.27 156.41 156.25 150.25 C 162.23 144.08 161.96 142.80 166.23 134.23 C 170.50 125.66 178.77 109.67 187.25 104.25 C 195.74 98.84 214.79 84.20 198.00 78.00
M 106.00 147.00 
C 106.61 148.31 103.45 138.34 105.93 133.93 C 108.40 129.52 108.18 124.24 111.00 120.00
C 102.58 121.95 93.99 131.20 84.00 131.00
C 81.13 132.15 70.59 136.76 67.93 133.07 C 65.26 129.39 75.44 127.59 80.22 127.22 C 85.00 126.86 87.83 121.46 93.75 120.75 C 99.66 120.04 112.83 102.86 118.00 107.00
C 118.30 107.24 119.00 107.00 119.00 107.00
C 119.28 107.70 120.68 108.69 120.00 110.00
C 121.54 110.37 122.40 108.57 124.00 109.00
C 126.75 106.60 130.26 103.82 134.00 104.00
C 134.43 110.70 126.58 111.06 123.25 116.25 C 119.92 121.43 115.98 123.63 114.03 130.03 C 112.07 136.42 108.66 140.97 111.78 149.22 C 114.90 157.47 105.54 156.04 106.00 147.00 Z"/>
</g>
<g fill="#C1BCC1" fill-opacity="0.14" stroke="None">
<path d="
M 112.00 21.00 
C 112.00 20.96 113.00 21.00 113.00 21.00
C 116.83 11.71 125.54 4.05 136.00 10.00
C 137.97 11.12 139.91 13.08 141.00 15.00
C 141.88 16.55 142.59 19.25 143.00 21.00
C 143.25 20.75 144.00 21.00 144.00 21.00
C 143.14 12.70 136.37 7.36 128.00 7.00 C 119.64 6.65 114.47 13.61 112.00 21.00 Z"/>
</g>
<g fill="#9E8A92" fill-opacity="0.30" stroke="None">
<path d="
M 141.00 15.00 
C 139.91 13.08 137.97 11.12 136.00 10.00
C 136.93 10.62 140.33 14.01 141.00 15.00 Z"/>
</g>
<g fill="#673648" fill-opacity="0.78" stroke="None">
<path d="
M 62.00 22.00 
C 61.98 20.99 61.90 14.94 62.00 14.00
C 61.55 16.27 61.74 19.70 62.00 22.00 Z"/>
</g>
<g fill="#9D898E" fill-opacity="0.20" stroke="None">
<path d="
M 112.00 62.00 
C 112.00 62.50 112.00 63.50 112.00 64.00
C 113.40 50.80 113.00 35.92 113.00 22.00
C 113.00 22.00 112.82 21.43 113.00 21.00
C 113.00 21.00 112.00 20.96 112.00 21.00
C 110.79 34.42 112.00 48.52 112.00 62.00 Z"/>
</g>
<g fill="#8E7A7E" fill-opacity="0.24" stroke="None">
<path d="
M 143.00 22.00 
C 143.00 26.29 143.34 30.73 143.00 35.00
C 143.04 34.87 144.00 35.00 144.00 35.00
C 144.08 33.34 144.00 31.66 144.00 30.00
C 144.00 28.00 144.00 26.00 144.00 24.00
C 144.00 23.02 144.10 21.97 144.00 21.00
C 144.00 21.00 143.25 20.75 143.00 21.00
C 143.00 21.00 143.00 21.50 143.00 22.00 Z"/>
</g>
<g fill="#613740" fill-opacity="0.77" stroke="None">
<path d="
M 112.00 64.00 
C 112.00 65.67 112.00 67.33 112.00 69.00
C 115.95 65.84 114.37 52.02 114.00 46.00 C 113.63 39.98 116.48 26.70 113.00 22.00
C 113.00 35.92 113.40 50.80 112.00 64.00 Z"/>
</g>
<g fill="#D4B4BA" fill-opacity="1.00" stroke="None">
<path d="
M 117.00 64.00 
C 117.00 64.50 117.00 65.00 117.00 65.00
C 118.62 51.58 116.26 36.03 118.00 22.00
C 114.95 34.32 117.00 50.68 117.00 64.00 Z"/>
</g>
<g fill="#684048" fill-opacity="0.78" stroke="None">
<path d="
M 142.00 42.00 
C 142.38 39.60 142.81 37.42 143.00 35.00
C 143.34 30.73 143.00 26.29 143.00 22.00
C 139.92 26.17 142.03 37.55 142.00 42.00 Z"/>
</g>
<g fill="#C2DADA" fill-opacity="0.03" stroke="None">
<path d="
M 144.00 30.00 
C 144.21 27.85 144.58 26.36 144.00 24.00
C 144.00 26.00 144.00 28.00 144.00 30.00 Z"/>
</g>
<g fill="#BEB5B9" fill-opacity="0.16" stroke="None">
<path d="
M 30.00 30.00 
C 28.66 30.86 24.91 34.74 24.00 36.00
C 18.18 45.50 24.72 57.71 31.25 64.75 C 37.78 71.80 41.96 80.38 50.00 86.00
C 49.57 85.50 49.39 84.42 49.00 84.00
C 47.10 81.97 44.27 80.61 43.00 78.00
C 43.00 78.00 43.22 77.36 43.00 77.00
C 39.96 74.88 38.13 71.90 36.00 69.00
C 35.34 68.10 34.77 66.88 34.00 66.00
C 29.82 61.24 25.55 56.26 24.00 50.00
C 22.97 45.83 22.51 41.29 25.00 37.00
C 26.17 34.99 28.08 33.18 30.00 32.00
C 33.94 29.58 39.72 29.07 44.00 31.00
C 46.06 31.93 47.83 34.23 49.00 36.00
C 54.25 43.90 58.16 53.02 63.00 61.00
C 65.78 65.59 69.70 70.11 72.00 75.00
C 72.32 75.20 72.73 75.80 73.00 76.00
C 75.89 78.18 77.19 82.34 81.00 83.00
C 83.72 77.85 79.08 73.21 79.00 68.00
C 78.50 67.38 77.37 66.69 77.00 66.00
C 76.98 70.65 84.26 79.06 78.00 81.00
C 71.21 70.89 63.16 59.99 57.77 49.23 C 52.38 38.47 44.69 21.99 30.00 30.00 Z"/>
</g>
<g fill="#E9ECE9" fill-opacity="0.05" stroke="None">
<path d="
M 24.00 36.00 
C 24.91 34.74 28.66 30.86 30.00 30.00
C 27.74 31.23 25.36 33.77 24.00 36.00 Z"/>
</g>
<g fill="#816470" fill-opacity="0.60" stroke="None">
<path d="
M 49.00 36.00 
C 47.83 34.23 46.06 31.93 44.00 31.00
C 44.87 31.47 48.28 35.08 49.00 36.00 Z"/>
</g>
<g fill="#856F73" fill-opacity="0.69" stroke="None">
<path d="
M 25.00 37.00 
C 25.70 35.98 28.93 32.77 30.00 32.00
C 28.08 33.18 26.17 34.99 25.00 37.00 Z"/>
</g>
<g fill="#B5ACAD" fill-opacity="0.14" stroke="None">
<path d="
M 142.00 42.00 
C 141.61 44.48 141.09 46.46 141.00 49.00
C 140.97 50.00 141.00 51.00 141.00 52.00
C 143.08 47.60 143.73 40.23 144.00 35.00
C 144.00 35.00 143.04 34.87 143.00 35.00
C 142.81 37.42 142.38 39.60 142.00 42.00 Z"/>
</g>
<g fill="#E9D4D6" fill-opacity="1.00" stroke="None">
<path d="
M 101.00 66.00 
C 99.08 57.34 97.48 48.78 96.00 40.00
C 95.96 44.10 94.24 50.69 95.69 55.31 C 97.14 59.92 99.55 62.90 101.00 66.00 Z"/>
</g>
<g fill="#6B4049" fill-opacity="0.78" stroke="None">
<path d="
M 138.00 81.00 
C 137.28 76.01 138.49 70.22 139.00 66.00
C 138.60 61.80 139.42 56.36 141.00 53.00
C 141.00 53.00 141.00 52.50 141.00 52.00
C 141.00 51.00 140.97 50.00 141.00 49.00
C 138.97 55.67 132.75 73.87 138.00 81.00 Z"/>
</g>
<g fill="#744955" fill-opacity="0.69" stroke="None">
<path d="
M 34.00 66.00 
C 31.37 60.91 26.14 55.14 24.00 50.00
C 25.55 56.26 29.82 61.24 34.00 66.00 Z"/>
</g>
<g fill="#B1A4A6" fill-opacity="0.16" stroke="None">
<path d="
M 139.00 66.00 
C 139.05 66.50 139.00 67.00 139.00 67.00
C 139.25 67.25 140.00 67.00 140.00 67.00
C 140.26 62.25 141.45 57.72 141.00 53.00
C 139.42 56.36 138.60 61.80 139.00 66.00 Z"/>
</g>
<g fill="#EED5D8" fill-opacity="1.00" stroke="None">
<path d="
M 134.00 68.00 
C 133.86 65.70 134.79 63.56 135.00 62.00
C 135.00 60.71 134.83 59.28 135.00 58.00
C 135.54 56.45 132.14 64.09 134.00 68.00 Z"/>
</g>
<g fill="#6A424C" fill-opacity="0.74" stroke="None">
<path d="
M 72.00 75.00 
C 69.70 70.11 65.78 65.59 63.00 61.00
C 64.93 65.74 67.14 71.99 72.00 75.00 Z"/>
</g>
<g fill="#A77C85" fill-opacity="1.00" stroke="None">
<path d="
M 134.00 68.00 
C 134.03 68.50 134.00 69.50 134.00 70.00
C 134.20 67.96 135.00 64.77 135.00 62.00
C 134.79 63.56 133.86 65.70 134.00 68.00 Z"/>
</g>
<g fill="#9B7E84" fill-opacity="1.00" stroke="None">
<path d="
M 116.00 72.00 
C 116.77 69.93 117.26 67.74 117.00 65.00
C 117.00 65.00 117.00 64.50 117.00 64.00
C 116.84 65.60 116.47 69.87 116.00 72.00 Z"/>
</g>
<g fill="#8E797C" fill-opacity="0.39" stroke="None">
<path d="
M 138.00 81.00 
C 138.22 81.30 138.87 81.73 139.00 82.00
C 138.80 80.39 139.00 78.62 139.00 77.00
C 139.00 75.33 139.00 73.67 139.00 72.00
C 139.00 70.33 139.00 68.67 139.00 67.00
C 139.00 67.00 139.05 66.50 139.00 66.00
C 138.49 70.22 137.28 76.01 138.00 81.00 Z"/>
</g>
<g fill="#E6E6E6" fill-opacity="0.03" stroke="None">
<path d="
M 139.00 72.00 
C 139.14 70.87 139.90 68.78 140.00 67.00
C 140.00 67.00 139.25 67.25 139.00 67.00
C 139.00 68.67 139.00 70.33 139.00 72.00 Z"/>
</g>
<g fill="#70454E" fill-opacity="0.72" stroke="None">
<path d="
M 73.00 76.00 
C 72.86 77.75 78.20 86.89 81.74 82.74 C 85.29 78.59 81.71 71.35 79.00 68.00
C 79.08 73.21 83.72 77.85 81.00 83.00
C 77.19 82.34 75.89 78.18 73.00 76.00 Z"/>
</g>
<g fill="#76595E" fill-opacity="0.51" stroke="None">
<path d="
M 43.00 77.00 
C 40.98 73.76 38.55 71.78 36.00 69.00
C 38.13 71.90 39.96 74.88 43.00 77.00 Z"/>
</g>
<g fill="#845E67" fill-opacity="0.47" stroke="None">
<path d="
M 112.00 71.00 
C 109.90 73.60 107.02 70.73 106.00 69.00
C 106.84 70.95 110.41 75.92 112.00 71.00 Z"/>
</g>
<g fill="#B89297" fill-opacity="1.00" stroke="None">
<path d="
M 106.00 76.00 
C 105.07 75.44 102.42 71.91 102.00 71.00
C 102.77 73.13 103.66 74.92 106.00 76.00 Z"/>
</g>
<g fill="#C3BCBE" fill-opacity="0.15" stroke="None">
<path d="
M 139.00 77.00 
C 139.00 78.62 138.80 80.39 139.00 82.00
C 140.10 84.24 140.54 86.81 142.00 89.00
C 142.93 90.19 145.85 93.17 147.00 94.00
C 153.69 98.10 160.45 93.89 166.00 90.00
C 167.81 88.51 168.75 86.10 171.00 85.00
C 171.00 85.00 171.68 85.24 172.00 85.00
C 174.72 81.10 178.32 79.26 182.00 77.00
C 187.49 72.84 196.55 71.25 203.00 75.00
C 204.84 76.07 207.13 78.07 208.00 80.00
C 209.55 83.42 209.58 88.59 208.00 92.00
C 206.47 95.30 201.84 98.97 199.00 101.00
C 196.31 102.92 193.63 104.75 191.00 107.00
C 187.92 110.08 183.69 113.73 181.00 117.00
C 177.83 121.53 175.21 126.88 173.00 132.00
C 171.33 135.86 169.10 139.64 167.00 143.00
C 165.96 144.66 165.06 146.30 164.00 148.00
C 163.61 148.63 163.14 149.25 163.00 150.00
C 173.30 143.28 176.77 122.20 185.75 113.75 C 194.74 105.30 216.56 94.40 208.92 80.08 C 201.28 65.76 179.80 71.92 170.25 84.25 C 160.70 96.57 141.24 96.53 139.00 77.00 Z"/>
</g>
<g fill="#7E6A72" fill-opacity="0.41" stroke="None">
<path d="
M 208.00 80.00 
C 207.13 78.07 204.84 76.07 203.00 75.00
C 203.76 75.52 207.56 79.19 208.00 80.00 Z"/>
</g>
<g fill="#BDB5B8" fill-opacity="0.16" stroke="None">
<path d="
M 3.00 93.00 
C 3.00 92.50 3.03 91.50 3.00 91.00
C 2.61 85.38 4.64 79.98 10.00 78.00
C 28.09 73.09 39.99 99.72 58.00 97.00
C 56.99 94.97 56.03 93.02 55.00 91.00
C 53.90 89.59 51.44 88.01 50.00 87.00
C 51.92 90.32 56.63 92.53 56.00 97.00
C 44.46 92.53 36.37 87.77 26.08 79.92 C 15.79 72.07 -1.28 77.78 3.00 93.00 Z"/>
</g>
<g fill="#765B5E" fill-opacity="0.66" stroke="None">
<path d="
M 172.00 85.00 
C 175.35 82.44 178.72 79.49 182.00 77.00
C 178.32 79.26 174.72 81.10 172.00 85.00 Z"/>
</g>
<g fill="#BA9097" fill-opacity="1.00" stroke="None">
<path d="
M 191.00 78.00 
C 192.97 77.75 196.06 77.60 198.00 78.00
C 195.23 76.98 193.76 77.29 191.00 78.00 Z"/>
</g>
<g fill="#6A3D48" fill-opacity="0.74" stroke="None">
<path d="
M 3.00 91.00 
C 3.36 93.90 6.38 98.95 9.00 101.00
C 22.49 109.73 41.02 115.57 51.00 129.00
C 52.41 130.89 53.95 133.16 55.00 135.00
C 52.67 128.13 46.39 119.55 38.08 115.92 C 29.77 112.29 22.47 105.39 14.08 101.92 C 5.69 98.45 -0.04 83.59 10.00 78.00
C 4.64 79.98 2.61 85.38 3.00 91.00 Z"/>
</g>
<g fill="#8F6F7B" fill-opacity="0.30" stroke="None">
<path d="
M 49.00 84.00 
C 47.02 82.02 45.42 79.69 43.00 78.00
C 44.27 80.61 47.10 81.97 49.00 84.00 Z"/>
</g>
<g fill="#6A444F" fill-opacity="0.64" stroke="None">
<path d="
M 50.00 86.00 
C 50.97 87.13 53.07 87.92 54.00 89.00
C 52.71 86.87 50.72 85.72 49.00 84.00
C 49.39 84.42 49.57 85.50 50.00 86.00 Z"/>
</g>
<g fill="#8A7174" fill-opacity="0.51" stroke="None">
<path d="
M 166.00 90.00 
C 167.96 88.63 169.59 87.02 171.00 85.00
C 168.75 86.10 167.81 88.51 166.00 90.00 Z"/>
</g>
<g fill="#877279" fill-opacity="0.27" stroke="None">
<path d="
M 50.00 87.00 
C 51.44 88.01 53.90 89.59 55.00 91.00
C 54.65 90.32 54.41 89.67 54.00 89.00
C 53.07 87.92 50.97 87.13 50.00 86.00
C 50.00 86.00 49.80 86.60 50.00 87.00 Z"/>
</g>
<g fill="#957681" fill-opacity="0.45" stroke="None">
<path d="
M 147.00 94.00 
C 145.85 93.17 142.93 90.19 142.00 89.00
C 143.28 90.93 144.96 92.75 147.00 94.00 Z"/>
</g>
<g fill="#806770" fill-opacity="0.24" stroke="None">
<path d="
M 3.00 93.00 
C 3.02 95.35 3.77 96.15 5.00 98.00
C 5.90 99.09 7.84 100.25 9.00 101.00
C 6.38 98.95 3.36 93.90 3.00 91.00
C 3.03 91.50 3.00 92.50 3.00 93.00 Z"/>
</g>
<g fill="#7B585C" fill-opacity="0.46" stroke="None">
<path d="
M 199.00 101.00 
C 201.84 98.97 206.47 95.30 208.00 92.00
C 206.74 94.29 201.16 99.19 199.00 101.00 Z"/>
</g>
<g fill="#A6969B" fill-opacity="0.12" stroke="None">
<path d="
M 47.00 126.00 
C 48.16 126.99 50.02 127.94 51.00 129.00
C 41.02 115.57 22.49 109.73 9.00 101.00
C 7.84 100.25 5.90 99.09 5.00 98.00
C 9.58 104.85 19.10 107.65 25.92 112.08 C 32.74 116.51 40.72 120.61 47.00 126.00 Z"/>
</g>
<g fill="#78434C" fill-opacity="1.00" stroke="None">
<path d="
M 124.00 109.00 
C 113.68 118.00 103.98 132.86 106.00 147.00
C 105.54 156.04 114.90 157.47 111.78 149.22 C 108.66 140.97 112.07 136.42 114.03 130.03 C 115.98 123.63 119.92 121.43 123.25 116.25 C 126.58 111.06 134.43 110.70 134.00 104.00
C 130.26 103.82 126.75 106.60 124.00 109.00 Z"/>
</g>
<g fill="#77434D" fill-opacity="1.00" stroke="None">
<path d="
M 84.00 131.00 
C 94.75 126.68 104.64 119.68 114.00 113.00
C 115.80 111.49 117.33 109.06 118.00 107.00
C 112.83 102.86 99.66 120.04 93.75 120.75 C 87.83 121.46 85.00 126.86 80.22 127.22 C 75.44 127.59 65.26 129.39 67.93 133.07 C 70.59 136.76 81.13 132.15 84.00 131.00 Z"/>
</g>
<g fill="#A3838A" fill-opacity="1.00" stroke="None">
<path d="
M 114.00 113.00 
C 116.13 111.48 118.71 109.72 119.00 107.00
C 119.00 107.00 118.30 107.24 118.00 107.00
C 117.33 109.06 115.80 111.49 114.00 113.00 Z"/>
</g>
<g fill="#ECD6DB" fill-opacity="1.00" stroke="None">
<path d="
M 114.00 113.00 
C 104.64 119.68 94.75 126.68 84.00 131.00
C 93.99 131.20 102.58 121.95 111.00 120.00
C 108.18 124.24 108.40 129.52 105.93 133.93 C 103.45 138.34 106.61 148.31 106.00 147.00
C 103.98 132.86 113.68 118.00 124.00 109.00
C 122.40 108.57 121.54 110.37 120.00 110.00
C 120.68 108.69 119.28 107.70 119.00 107.00
C 118.71 109.72 116.13 111.48 114.00 113.00 Z"/>
</g>
<g fill="#937D7F" fill-opacity="0.38" stroke="None">
<path d="
M 181.00 117.00 
C 183.69 113.73 187.92 110.08 191.00 107.00
C 187.55 109.95 183.67 113.19 181.00 117.00 Z"/>
</g>
<g fill="#C6BBC1" fill-opacity="0.11" stroke="None">
<path d="
M 78.00 173.00 
C 76.05 170.51 74.39 166.05 74.00 163.00
C 73.94 162.51 74.15 161.45 74.00 161.00
C 71.80 158.16 68.20 155.95 66.00 153.00
C 64.30 150.71 62.56 148.36 61.00 146.00
C 58.70 142.51 56.99 138.49 55.00 135.00
C 53.95 133.16 52.41 130.89 51.00 129.00
C 50.02 127.94 48.16 126.99 47.00 126.00
C 51.48 130.65 53.49 136.80 57.23 141.77 C 60.97 146.74 62.78 152.98 68.25 156.75 C 73.71 160.52 72.74 169.71 78.00 173.00 Z"/>
</g>
<g fill="#7F6068" fill-opacity="0.58" stroke="None">
<path d="
M 167.00 143.00 
C 169.10 139.64 171.33 135.86 173.00 132.00
C 171.11 135.46 168.77 139.21 167.00 143.00 Z"/>
</g>
<g fill="#6E4E56" fill-opacity="0.67" stroke="None">
<path d="
M 66.00 153.00 
C 68.21 155.53 72.85 157.65 74.00 161.00
C 74.15 161.45 73.94 162.51 74.00 163.00
C 72.83 156.75 65.89 151.83 61.00 146.00
C 62.56 148.36 64.30 150.71 66.00 153.00 Z"/>
</g>
<g fill="#ACA0A6" fill-opacity="0.16" stroke="None">
<path d="
M 162.00 150.00 
C 158.90 154.06 153.74 157.56 152.00 162.00
C 151.04 165.09 150.93 167.22 149.00 170.00
C 146.91 173.01 143.92 175.91 141.00 178.00
C 137.53 180.48 133.05 182.70 129.00 184.00
C 125.48 185.13 121.82 185.79 118.00 186.00
C 117.99 186.00 118.00 187.00 118.00 187.00
C 127.60 187.64 134.85 181.94 142.77 177.77 C 150.69 173.60 151.35 164.19 156.00 158.00
C 157.97 155.37 160.34 152.86 163.00 151.00
C 163.00 151.00 162.91 150.48 163.00 150.00
C 163.14 149.25 163.61 148.63 164.00 148.00
C 163.34 148.69 162.65 149.14 162.00 150.00 Z"/>
</g>
<g fill="#744F56" fill-opacity="0.62" stroke="None">
<path d="
M 152.00 162.00 
C 153.74 157.56 158.90 154.06 162.00 150.00
C 158.05 153.98 153.67 156.64 152.00 162.00 Z"/>
</g>
<g fill="#E6E6E6" fill-opacity="0.03" stroke="None">
<path d="
M 156.00 158.00 
C 158.05 155.67 161.52 154.02 163.00 151.00
C 160.34 152.86 157.97 155.37 156.00 158.00 Z"/>
</g>
<g fill="#9C878F" fill-opacity="0.29" stroke="None">
<path d="
M 74.00 161.00 
C 72.85 157.65 68.21 155.53 66.00 153.00
C 68.20 155.95 71.80 158.16 74.00 161.00 Z"/>
</g>
<g fill="#6D4A55" fill-opacity="0.56" stroke="None">
<path d="
M 141.00 178.00 
C 143.92 175.91 146.91 173.01 149.00 170.00
C 147.10 172.34 143.37 176.01 141.00 178.00 Z"/>
</g>
<g fill="#907E83" fill-opacity="0.23" stroke="None">
<path d="
M 78.00 174.00 
C 80.14 175.49 81.93 177.52 84.00 179.00
C 82.00 177.32 80.69 174.12 78.00 173.00
C 78.00 173.00 77.80 173.60 78.00 174.00 Z"/>
</g>
<g fill="#BCB8BB" fill-opacity="0.10" stroke="None">
<path d="
M 117.00 187.00 
C 113.20 187.00 109.07 186.37 106.00 186.00
C 100.65 185.89 96.79 185.00 92.00 183.00
C 89.24 181.85 86.48 180.77 84.00 179.00
C 81.93 177.52 80.14 175.49 78.00 174.00
C 80.65 179.43 88.51 183.60 93.98 185.02 C 99.44 186.45 111.91 190.77 117.00 187.00 Z"/>
</g>
<g fill="#6B4049" fill-opacity="0.77" stroke="None">
<path d="
M 92.00 183.00 
C 96.79 185.00 100.65 185.89 106.00 186.00
C 109.96 186.08 114.04 186.21 118.00 186.00
C 121.82 185.79 125.48 185.13 129.00 184.00
C 118.57 185.65 102.17 185.49 92.00 183.00 Z"/>
</g>
<g fill="#81656C" fill-opacity="0.45" stroke="None">
<path d="
M 117.00 187.00 
C 117.00 187.00 117.50 186.97 118.00 187.00
C 118.00 187.00 117.99 186.00 118.00 186.00
C 114.04 186.21 109.96 186.08 106.00 186.00
C 109.07 186.37 113.20 187.00 117.00 187.00 Z"/>
</g>
</svg>