<svg xmlns="http://www.w3.org/2000/svg" xmlns:v="https://svgstorm.com"
viewBox = "0 0 130 137"
width="130"
height="137">
<g fill="None" fill-opacity="0.0" stroke="#000000" stroke-opacity="0.00" stroke-width="0.3"><path d="
M 0.00 51.00 
C 2.70 44.75 4.54 33.52 12.70 30.70 C 20.86 27.87 22.74 17.02 31.69 15.69 C 40.65 14.37 47.45 9.73 55.08 5.08 C 62.70 0.42 73.50 8.74 80.00 0.00
L 0.00 0.00
L 0.00 51.00 Z"/>
</g>
<g fill="None" fill-opacity="0.0" stroke="#C9C2C4" stroke-opacity="0.16" stroke-width="0.3"><path d="
M 0.00 51.00 
L 0.00 67.00
C 3.78 75.86 2.97 87.08 9.77 95.23 C 16.57 103.38 16.64 113.77 21.25 122.75 C 25.87 131.72 38.40 133.91 46.00 137.00
L 64.00 137.00
C 73.43 133.36 88.40 133.12 94.00 122.00
C 92.81 123.91 88.87 126.76 87.00 128.00
C 85.21 129.19 82.98 130.19 81.00 131.00
C 65.40 137.43 43.67 138.76 29.00 129.00
C 26.41 127.28 23.60 124.61 22.00 122.00
C 16.90 113.68 16.75 101.88 10.23 93.77 C 3.70 85.66 2.00 71.94 2.00 62.00
C 1.75 59.37 1.63 56.62 2.00 54.00
C 2.48 41.54 8.76 35.87 18.00 29.00
C 18.80 28.27 20.35 26.75 21.00 26.00
C 21.39 25.36 21.63 24.61 22.00 24.00
C 23.05 22.27 24.38 21.08 26.00 20.00
C 31.46 16.37 38.48 15.83 44.23 13.23 C 49.98 10.63 54.57 3.10 62.00 5.00 C 69.44 6.90 75.88 3.58 83.00 2.00
C 83.46 1.68 83.81 0.48 84.00 0.00
L 80.00 0.00
C 73.50 8.74 62.70 0.42 55.08 5.08 C 47.45 9.73 40.65 14.37 31.69 15.69 C 22.74 17.02 20.86 27.87 12.70 30.70 C 4.54 33.52 2.70 44.75 0.00 51.00 Z"/>
</g>
<g fill="None" fill-opacity="0.0" stroke="#BE9DA7" stroke-opacity="0.84" stroke-width="0.3"><path d="
M 83.00 2.00 
C 86.91 1.13 92.19 -0.18 96.00 2.00
C 95.58 1.79 95.16 0.39 95.00 0.00
L 84.00 0.00
C 83.81 0.48 83.46 1.68 83.00 2.00 Z"/>
</g>
<g fill="None" fill-opacity="0.0" stroke="#C7B1BE" stroke-opacity="0.40" stroke-width="0.3"><path d="
M 96.00 2.00 
C 96.38 2.22 97.00 2.00 97.00 2.00
C 97.80 2.14 98.16 2.85 99.00 3.00
C 98.21 2.28 97.54 0.88 97.00 0.00
L 95.00 0.00
C 95.16 0.39 95.58 1.79 96.00 2.00 Z"/>
</g>
<g fill="None" fill-opacity="0.0" stroke="#D5D1D7" stroke-opacity="0.09" stroke-width="0.3"><path d="
M 99.00 3.00 
C 99.48 3.09 100.00 3.00 100.00 3.00
C 104.38 5.14 106.61 9.89 108.00 14.00
C 108.51 15.51 108.85 16.30 109.00 18.00
C 109.02 18.10 110.00 18.00 110.00 18.00
C 109.61 10.38 103.69 4.39 98.00 0.00
L 97.00 0.00
C 97.54 0.88 98.21 2.28 99.00 3.00 Z"/>
</g>
<g fill="None" fill-opacity="0.0" stroke="#000000" stroke-opacity="0.00" stroke-width="0.3"><path d="
M 110.00 18.00 
C 110.01 18.20 110.03 21.00 110.00 21.00
C 111.10 26.01 111.26 32.30 111.00 38.00
C 114.55 38.95 117.95 41.82 120.00 45.00
C 120.20 45.40 120.00 46.00 120.00 46.00
C 125.51 49.59 129.43 60.56 129.00 67.00
C 128.97 67.50 129.00 68.00 129.00 68.00
C 129.25 68.25 130.00 68.00 130.00 68.00
L 130.00 0.00
L 98.00 0.00
C 103.69 4.39 109.61 10.38 110.00 18.00 Z"/>
</g>
<g fill="None" fill-opacity="0.0" stroke="#743F49" stroke-opacity="0.98" stroke-width="0.3"><path d="
M 83.00 2.00 
C 75.88 3.58 69.44 6.90 62.00 5.00 C 54.57 3.10 49.98 10.63 44.23 13.23 C 38.48 15.83 31.46 16.37 26.00 20.00
C 24.89 20.86 22.94 22.99 22.00 24.00
C 21.63 24.61 21.39 25.36 21.00 26.00
C 20.13 27.42 19.25 28.07 18.00 29.00
C 8.76 35.87 2.48 41.54 2.00 54.00
C 1.90 56.66 2.00 59.34 2.00 62.00
C 2.00 71.94 3.70 85.66 10.23 93.77 C 16.75 101.88 16.90 113.68 22.00 122.00
C 23.35 123.87 27.22 127.61 29.00 129.00
C 43.67 138.76 65.40 137.43 81.00 131.00
C 85.22 128.60 88.84 123.91 93.00 121.00
C 93.20 120.60 93.00 120.00 93.00 120.00
C 93.00 109.74 99.31 109.25 105.75 103.75 C 112.18 98.24 115.23 94.10 120.00 88.00
C 121.68 85.85 123.42 83.13 125.00 81.00
C 125.65 79.78 126.28 78.96 127.00 78.00
C 127.05 77.50 127.00 77.00 127.00 77.00
C 127.01 75.64 127.78 75.24 128.00 74.00
C 128.11 72.35 128.07 65.61 128.00 64.00
C 127.10 58.00 123.67 51.81 120.00 47.00
C 117.14 45.81 114.17 41.83 112.00 40.00
C 110.64 39.54 109.59 38.17 109.00 37.00
C 106.13 31.33 108.81 22.40 107.01 15.99 C 105.20 9.58 101.29 6.48 97.00 2.00
C 97.00 2.00 96.38 2.22 96.00 2.00
C 92.19 -0.18 86.91 1.13 83.00 2.00
M 94.00 6.00 
C 107.81 10.36 105.01 26.15 105.00 38.00
C 100.88 38.15 97.33 40.54 93.00 40.00
C 95.10 29.22 88.81 18.52 79.77 13.23 C 70.73 7.94 81.98 6.81 86.00 6.00
C 88.98 5.47 90.97 5.04 94.00 6.00
M 69.00 41.00 
C 68.36 39.32 67.88 37.67 67.00 36.00
C 64.02 31.71 58.26 25.90 54.00 23.00
C 52.28 22.07 45.36 17.69 46.00 23.00
C 47.58 23.08 48.09 25.42 49.00 26.00
C 50.11 26.49 50.07 26.35 51.00 27.00
C 63.05 35.47 78.40 64.23 60.00 74.00
C 58.63 74.73 56.91 76.02 55.00 76.00
C 55.00 74.67 55.00 73.33 55.00 72.00
C 52.54 64.79 48.10 52.97 43.75 47.25 C 39.40 41.53 23.58 32.47 26.26 38.75 C 28.94 45.02 43.48 48.96 44.92 57.08 C 46.37 65.19 55.53 77.87 43.77 81.77 C 32.01 85.67 31.55 66.40 21.00 68.00
C 21.00 69.00 21.00 70.00 21.00 71.00
C 21.01 70.98 24.25 72.96 23.00 74.00
C 20.21 73.48 14.07 73.94 17.00 78.00
C 17.43 78.17 18.00 78.00 18.00 78.00
C 20.24 78.00 22.79 77.66 25.00 78.00
C 30.96 78.93 31.53 82.68 37.69 85.31 C 43.86 87.93 47.89 83.09 53.00 81.00
C 54.63 80.33 56.75 79.46 59.00 80.00
C 59.27 81.28 58.23 82.72 57.00 83.00
C 56.19 86.66 58.61 102.89 61.00 89.00 C 63.38 75.11 74.81 73.10 86.00 76.00
C 88.61 76.35 91.37 75.80 94.00 76.00
C 99.88 76.45 99.10 78.52 104.23 80.77 C 109.36 83.02 107.61 73.56 103.00 74.00
C 105.43 72.94 108.72 71.31 108.00 68.00
C 101.25 68.57 90.53 74.30 83.99 71.01 C 77.46 67.71 70.69 60.55 74.31 53.31 C 77.92 46.06 89.83 47.59 96.00 45.00 C 102.17 42.41 111.78 40.90 115.75 48.25 C 119.72 55.60 124.38 61.72 124.00 70.00 C 123.62 78.28 118.15 83.16 113.75 89.75 C 109.35 96.34 106.77 99.45 99.75 104.75 C 92.74 110.06 87.41 109.57 77.99 112.99 C 68.57 116.42 83.17 120.10 90.00 115.00
C 90.00 124.20 79.13 126.96 72.00 129.00
C 55.20 133.82 29.47 132.40 23.00 113.00
C 29.84 116.60 35.93 122.71 44.00 124.00
C 44.51 124.38 44.79 119.93 44.00 119.00
C 37.40 114.21 27.72 113.69 22.75 105.25 C 17.78 96.80 13.86 92.51 10.23 82.77 C 6.60 73.03 6.50 64.01 6.78 52.78 C 7.06 41.55 14.23 39.43 21.23 32.23 C 28.23 25.03 33.28 22.11 43.00 19.00
C 47.35 17.61 51.12 14.01 55.00 12.00
C 56.29 11.07 55.88 9.94 58.00 10.00
C 58.50 10.01 59.00 10.00 59.00 10.00
C 65.81 4.96 71.22 14.36 77.25 17.75 C 83.27 21.15 88.79 27.90 88.00 36.00 C 87.21 44.10 77.41 43.95 71.00 48.00
C 71.07 45.48 69.92 43.27 69.00 41.00
M 70.00 70.00 
C 69.81 62.82 76.38 70.31 70.00 70.00 Z"/>
</g>
<g fill="None" fill-opacity="0.0" stroke="#673B48" stroke-opacity="0.82" stroke-width="0.3"><path d="
M 109.00 37.00 
C 107.77 33.26 109.00 26.97 109.00 23.00
C 109.00 21.36 109.15 19.64 109.00 18.00
C 108.85 16.30 108.51 15.51 108.00 14.00
C 106.13 10.02 102.60 6.73 100.00 3.00
C 100.00 3.00 99.48 3.09 99.00 3.00
C 98.16 2.85 97.80 2.14 97.00 2.00
C 101.29 6.48 105.20 9.58 107.01 15.99 C 108.81 22.40 106.13 31.33 109.00 37.00 Z"/>
</g>
<g fill="None" fill-opacity="0.0" stroke="#7C656D" stroke-opacity="0.39" stroke-width="0.3"><path d="
M 108.00 14.00 
C 106.61 9.89 104.38 5.14 100.00 3.00
C 102.60 6.73 106.13 10.02 108.00 14.00 Z"/>
</g>
<g fill="None" fill-opacity="0.0" stroke="#BC969C" stroke-opacity="1.00" stroke-width="0.3"><path d="
M 86.00 6.00 
C 88.42 5.84 91.62 5.57 94.00 6.00
C 90.97 5.04 88.98 5.47 86.00 6.00 Z"/>
</g>
<g fill="None" fill-opacity="0.0" stroke="#F7F1F1" stroke-opacity="1.00" stroke-width="0.3"><path d="
M 94.00 6.00 
C 91.62 5.57 88.42 5.84 86.00 6.00
C 81.98 6.81 70.73 7.94 79.77 13.23 C 88.81 18.52 95.10 29.22 93.00 40.00
C 97.33 40.54 100.88 38.15 105.00 38.00
C 105.01 26.15 107.81 10.36 94.00 6.00 Z"/>
</g>
<g fill="None" fill-opacity="0.0" stroke="#F8F5F5" stroke-opacity="1.00" stroke-width="0.3"><path d="
M 59.00 10.00 
C 58.91 9.92 45.78 19.80 54.70 22.30 C 63.62 24.81 63.08 31.79 70.00 34.00
C 69.48 36.19 71.14 39.62 69.00 41.00
C 69.92 43.27 71.07 45.48 71.00 48.00
C 77.41 43.95 87.21 44.10 88.00 36.00 C 88.79 27.90 83.27 21.15 77.25 17.75 C 71.22 14.36 65.81 4.96 59.00 10.00 Z"/>
</g>
<g fill="None" fill-opacity="0.0" stroke="#C69DA4" stroke-opacity="1.00" stroke-width="0.3"><path d="
M 55.00 12.00 
C 56.23 11.36 57.04 10.72 58.00 10.00
C 55.88 9.94 56.29 11.07 55.00 12.00 Z"/>
</g>
<g fill="None" fill-opacity="0.0" stroke="#EFDCE0" stroke-opacity="1.00" stroke-width="0.3"><path d="
M 55.00 12.00 
C 51.12 14.01 47.35 17.61 43.00 19.00
C 44.87 19.77 45.07 22.97 46.26 24.74 C 47.44 26.51 50.50 26.77 51.00 27.00
C 50.07 26.35 50.11 26.49 49.00 26.00
C 47.96 25.55 46.15 24.22 46.00 23.00
C 45.36 17.69 52.28 22.07 54.00 23.00
C 59.17 25.79 64.28 30.84 67.00 36.00
C 67.88 37.67 68.36 39.32 69.00 41.00
C 71.14 39.62 69.48 36.19 70.00 34.00
C 63.08 31.79 63.62 24.81 54.70 22.30 C 45.78 19.80 58.91 9.92 59.00 10.00
C 59.00 10.00 58.50 10.01 58.00 10.00
C 57.04 10.72 56.23 11.36 55.00 12.00 Z"/>
</g>
<g fill="None" fill-opacity="0.0" stroke="#9C898E" stroke-opacity="0.22" stroke-width="0.3"><path d="
M 109.00 23.00 
C 109.05 23.15 110.00 23.00 110.00 23.00
C 110.00 22.50 109.95 21.01 110.00 21.00
C 110.03 21.00 110.01 18.20 110.00 18.00
C 110.00 18.00 109.02 18.10 109.00 18.00
C 109.15 19.64 109.00 21.36 109.00 23.00 Z"/>
</g>
<g fill="None" fill-opacity="0.0" stroke="#F8F6F6" stroke-opacity="1.00" stroke-width="0.3"><path d="
M 44.00 119.00 
C 45.13 119.82 46.96 121.19 46.00 123.00
C 47.39 124.66 39.61 124.98 40.00 126.00
C 49.13 133.43 62.51 127.71 72.00 129.00
C 79.13 126.96 90.00 124.20 90.00 115.00
C 83.17 120.10 68.57 116.42 77.99 112.99 C 87.41 109.57 92.74 110.06 99.75 104.75 C 106.77 99.45 109.35 96.34 113.75 89.75 C 118.15 83.16 123.62 78.28 124.00 70.00 C 124.38 61.72 119.72 55.60 115.75 48.25 C 111.78 40.90 102.17 42.41 96.00 45.00 C 89.83 47.59 77.92 46.06 74.31 53.31 C 70.69 60.55 77.46 67.71 83.99 71.01 C 90.53 74.30 101.25 68.57 108.00 68.00
C 108.72 71.31 105.43 72.94 103.00 74.00
C 107.61 73.56 109.36 83.02 104.23 80.77 C 99.10 78.52 99.88 76.45 94.00 76.00
C 91.41 76.05 88.81 76.73 86.00 76.00
C 74.81 73.10 63.38 75.11 61.00 89.00 C 58.61 102.89 56.19 86.66 57.00 83.00
C 56.25 80.99 55.57 80.69 53.00 81.00
C 47.89 83.09 43.86 87.93 37.69 85.31 C 31.53 82.68 30.96 78.93 25.00 78.00
C 22.78 77.84 20.63 79.95 18.00 78.00
C 18.00 78.00 17.43 78.17 17.00 78.00
C 10.98 75.63 20.07 71.75 21.00 71.00
C 21.00 70.00 21.00 69.00 21.00 68.00
C 31.55 66.40 32.01 85.67 43.77 81.77 C 55.53 77.87 46.37 65.19 44.92 57.08 C 43.48 48.96 28.94 45.02 26.26 38.75 C 23.58 32.47 39.40 41.53 43.75 47.25 C 48.10 52.97 52.54 64.79 55.00 72.00
C 56.30 73.74 57.53 74.25 60.00 74.00
C 78.40 64.23 63.05 35.47 51.00 27.00
C 50.50 26.77 47.44 26.51 46.26 24.74 C 45.07 22.97 44.87 19.77 43.00 19.00
C 33.28 22.11 28.23 25.03 21.23 32.23 C 14.23 39.43 7.06 41.55 6.78 52.78 C 6.50 64.01 6.60 73.03 10.23 82.77 C 13.86 92.51 17.78 96.80 22.75 105.25 C 27.72 113.69 37.40 114.21 44.00 119.00 Z"/>
</g>
<g fill="None" fill-opacity="0.0" stroke="#928385" stroke-opacity="0.35" stroke-width="0.3"><path d="
M 22.00 24.00 
C 22.94 22.99 24.89 20.86 26.00 20.00
C 24.38 21.08 23.05 22.27 22.00 24.00 Z"/>
</g>
<g fill="None" fill-opacity="0.0" stroke="#E2E1E1" stroke-opacity="0.07" stroke-width="0.3"><path d="
M 110.00 23.00 
C 110.00 28.34 108.06 37.06 113.00 40.00
C 113.44 40.08 114.63 40.78 115.00 41.00
C 116.83 42.11 118.30 43.81 120.00 45.00
C 117.95 41.82 114.55 38.95 111.00 38.00
C 111.26 32.30 111.10 26.01 110.00 21.00
C 109.95 21.01 110.00 22.50 110.00 23.00 Z"/>
</g>
<g fill="None" fill-opacity="0.0" stroke="#AB7E87" stroke-opacity="1.00" stroke-width="0.3"><path d="
M 49.00 26.00 
C 48.09 25.42 47.58 23.08 46.00 23.00
C 46.15 24.22 47.96 25.55 49.00 26.00 Z"/>
</g>
<g fill="None" fill-opacity="0.0" stroke="#BC9CA2" stroke-opacity="1.00" stroke-width="0.3"><path d="
M 67.00 36.00 
C 64.28 30.84 59.17 25.79 54.00 23.00
C 58.26 25.90 64.02 31.71 67.00 36.00 Z"/>
</g>
<g fill="None" fill-opacity="0.0" stroke="#866B71" stroke-opacity="0.53" stroke-width="0.3"><path d="
M 109.00 37.00 
C 109.59 38.17 110.64 39.54 112.00 40.00
C 112.45 40.15 113.00 40.00 113.00 40.00
C 108.06 37.06 110.00 28.34 110.00 23.00
C 110.00 23.00 109.05 23.15 109.00 23.00
C 109.00 26.97 107.77 33.26 109.00 37.00 Z"/>
</g>
<g fill="None" fill-opacity="0.0" stroke="#A2868E" stroke-opacity="0.34" stroke-width="0.3"><path d="
M 18.00 29.00 
C 19.25 28.07 20.13 27.42 21.00 26.00
C 20.35 26.75 18.80 28.27 18.00 29.00 Z"/>
</g>
<g fill="None" fill-opacity="0.0" stroke="#67434C" stroke-opacity="0.65" stroke-width="0.3"><path d="
M 120.00 47.00 
C 119.76 46.68 120.00 46.00 120.00 46.00
C 117.96 44.58 116.69 42.57 115.00 41.00
C 114.63 40.78 113.44 40.08 113.00 40.00
C 113.00 40.00 112.45 40.15 112.00 40.00
C 114.17 41.83 117.14 45.81 120.00 47.00 Z"/>
</g>
<g fill="None" fill-opacity="0.0" stroke="#A89197" stroke-opacity="0.23" stroke-width="0.3"><path d="
M 120.00 46.00 
C 120.00 46.00 120.20 45.40 120.00 45.00
C 118.30 43.81 116.83 42.11 115.00 41.00
C 116.69 42.57 117.96 44.58 120.00 46.00 Z"/>
</g>
<g fill="None" fill-opacity="0.0" stroke="#D0CACD" stroke-opacity="0.15" stroke-width="0.3"><path d="
M 120.00 47.00 
C 123.67 51.81 127.10 58.00 128.00 64.00
C 128.14 64.94 128.00 66.05 128.00 67.00
C 128.27 67.25 129.00 67.00 129.00 67.00
C 129.43 60.56 125.51 49.59 120.00 46.00
C 120.00 46.00 119.76 46.68 120.00 47.00 Z"/>
</g>
<g fill="None" fill-opacity="0.0" stroke="#9B8891" stroke-opacity="0.56" stroke-width="0.3"><path d="
M 2.00 62.00 
C 2.00 59.34 1.90 56.66 2.00 54.00
C 1.63 56.62 1.75 59.37 2.00 62.00 Z"/>
</g>
<g fill="None" fill-opacity="0.0" stroke="#5C3945" stroke-opacity="0.77" stroke-width="0.3"><path d="
M 128.00 74.00 
C 128.08 73.51 128.00 72.50 128.00 72.00
C 128.00 70.33 128.00 68.67 128.00 67.00
C 128.00 66.05 128.14 64.94 128.00 64.00
C 128.07 65.61 128.11 72.35 128.00 74.00 Z"/>
</g>
<g fill="None" fill-opacity="0.0" stroke="#D0999F" stroke-opacity="1.00" stroke-width="0.3"><path d="
M 70.00 70.00 
C 76.38 70.31 69.81 62.82 70.00 70.00 Z"/>
</g>
<g fill="None" fill-opacity="0.0" stroke="#000000" stroke-opacity="0.00" stroke-width="0.3"><path d="
M 0.00 137.00 
L 46.00 137.00
C 38.40 133.91 25.87 131.72 21.25 122.75 C 16.64 113.77 16.57 103.38 9.77 95.23 C 2.97 87.08 3.78 75.86 0.00 67.00
L 0.00 137.00 Z"/>
</g>
<g fill="None" fill-opacity="0.0" stroke="#837982" stroke-opacity="0.31" stroke-width="0.3"><path d="
M 128.00 72.00 
C 128.34 71.77 129.00 72.00 129.00 72.00
C 128.99 71.50 129.00 71.00 129.00 71.00
C 129.00 70.00 129.00 69.00 129.00 68.00
C 129.00 68.00 128.97 67.50 129.00 67.00
C 129.00 67.00 128.27 67.25 128.00 67.00
C 128.00 68.67 128.00 70.33 128.00 72.00 Z"/>
</g>
<g fill="None" fill-opacity="0.0" stroke="#FFFFFF" stroke-opacity="0.01" stroke-width="0.3"><path d="
M 129.00 71.00 
C 129.25 70.75 130.00 71.00 130.00 71.00
L 130.00 68.00
C 130.00 68.00 129.25 68.25 129.00 68.00
C 129.00 69.00 129.00 70.00 129.00 71.00 Z"/>
</g>
<g fill="None" fill-opacity="0.0" stroke="#C09FA5" stroke-opacity="1.00" stroke-width="0.3"><path d="
M 17.00 78.00 
C 14.07 73.94 20.21 73.48 23.00 74.00
C 24.25 72.96 21.01 70.98 21.00 71.00
C 20.07 71.75 10.98 75.63 17.00 78.00 Z"/>
</g>
<g fill="None" fill-opacity="0.0" stroke="#000000" stroke-opacity="0.00" stroke-width="0.3"><path d="
M 129.00 72.00 
C 129.06 74.06 128.51 75.77 127.00 77.00
C 127.00 77.00 127.05 77.50 127.00 78.00
C 126.80 80.15 125.81 81.87 124.00 83.00
C 123.91 83.48 124.00 84.00 124.00 84.00
C 122.47 88.24 118.69 93.42 115.00 96.00
C 114.78 96.36 115.00 97.00 115.00 97.00
C 113.22 100.63 106.57 107.25 103.00 109.00
C 102.60 109.20 102.00 109.00 102.00 109.00
C 100.61 111.22 98.22 111.81 96.00 113.00
C 95.61 114.57 96.94 117.22 95.00 118.00
C 94.91 119.67 94.74 120.54 94.00 122.00
C 88.40 133.12 73.43 133.36 64.00 137.00
L 130.00 137.00
L 130.00 71.00
C 130.00 71.00 129.25 70.75 129.00 71.00
C 129.00 71.00 128.99 71.50 129.00 72.00 Z"/>
</g>
<g fill="None" fill-opacity="0.0" stroke="#E4B3BD" stroke-opacity="1.00" stroke-width="0.3"><path d="
M 60.00 74.00 
C 57.53 74.25 56.30 73.74 55.00 72.00
C 55.00 73.33 55.00 74.67 55.00 76.00
C 56.91 76.02 58.63 74.73 60.00 74.00 Z"/>
</g>
<g fill="None" fill-opacity="0.0" stroke="#B7B1B5" stroke-opacity="0.12" stroke-width="0.3"><path d="
M 128.00 74.00 
C 127.78 75.24 127.01 75.64 127.00 77.00
C 128.51 75.77 129.06 74.06 129.00 72.00
C 129.00 72.00 128.34 71.77 128.00 72.00
C 128.00 72.50 128.08 73.51 128.00 74.00 Z"/>
</g>
<g fill="None" fill-opacity="0.0" stroke="#BB9EA0" stroke-opacity="1.00" stroke-width="0.3"><path d="
M 94.00 76.00 
C 91.37 75.80 88.61 76.35 86.00 76.00
C 88.81 76.73 91.41 76.05 94.00 76.00 Z"/>
</g>
<g fill="None" fill-opacity="0.0" stroke="#C1A2AC" stroke-opacity="1.00" stroke-width="0.3"><path d="
M 25.00 78.00 
C 22.79 77.66 20.24 78.00 18.00 78.00
C 20.63 79.95 22.78 77.84 25.00 78.00 Z"/>
</g>
<g fill="None" fill-opacity="0.0" stroke="#D3CAD0" stroke-opacity="0.07" stroke-width="0.3"><path d="
M 125.00 81.00 
C 124.63 81.70 124.14 82.21 124.00 83.00
C 125.81 81.87 126.80 80.15 127.00 78.00
C 126.28 78.96 125.65 79.78 125.00 81.00 Z"/>
</g>
<g fill="None" fill-opacity="0.0" stroke="#C1969E" stroke-opacity="1.00" stroke-width="0.3"><path d="
M 53.00 81.00 
C 55.57 80.69 56.25 80.99 57.00 83.00
C 58.23 82.72 59.27 81.28 59.00 80.00
C 56.75 79.46 54.63 80.33 53.00 81.00 Z"/>
</g>
<g fill="None" fill-opacity="0.0" stroke="#6C5057" stroke-opacity="0.47" stroke-width="0.3"><path d="
M 120.00 88.00 
C 121.03 86.58 122.73 85.22 124.00 84.00
C 124.00 84.00 123.91 83.48 124.00 83.00
C 124.14 82.21 124.63 81.70 125.00 81.00
C 123.42 83.13 121.68 85.85 120.00 88.00 Z"/>
</g>
<g fill="None" fill-opacity="0.0" stroke="#B0A6A7" stroke-opacity="0.10" stroke-width="0.3"><path d="
M 120.00 88.00 
C 118.36 90.25 116.58 93.46 115.00 96.00
C 118.69 93.42 122.47 88.24 124.00 84.00
C 122.73 85.22 121.03 86.58 120.00 88.00 Z"/>
</g>
<g fill="None" fill-opacity="0.0" stroke="#6C4049" stroke-opacity="0.65" stroke-width="0.3"><path d="
M 93.00 120.00 
C 93.74 118.55 94.32 116.45 95.00 115.00
C 95.37 111.64 99.21 110.10 102.00 109.00
C 102.00 109.00 102.60 109.20 103.00 109.00
C 105.99 104.72 110.77 99.95 115.00 97.00
C 115.00 97.00 114.78 96.36 115.00 96.00
C 116.58 93.46 118.36 90.25 120.00 88.00
C 115.23 94.10 112.18 98.24 105.75 103.75 C 99.31 109.25 93.00 109.74 93.00 120.00 Z"/>
</g>
<g fill="None" fill-opacity="0.0" stroke="#AC999E" stroke-opacity="0.07" stroke-width="0.3"><path d="
M 103.00 109.00 
C 106.57 107.25 113.22 100.63 115.00 97.00
C 110.77 99.95 105.99 104.72 103.00 109.00 Z"/>
</g>
<g fill="None" fill-opacity="0.0" stroke="#C4B7B9" stroke-opacity="0.08" stroke-width="0.3"><path d="
M 95.00 115.00 
C 94.89 115.98 95.05 117.01 95.00 118.00
C 96.94 117.22 95.61 114.57 96.00 113.00
C 98.22 111.81 100.61 111.22 102.00 109.00
C 99.21 110.10 95.37 111.64 95.00 115.00 Z"/>
</g>
<g fill="None" fill-opacity="0.0" stroke="#EFD9DC" stroke-opacity="1.00" stroke-width="0.3"><path d="
M 72.00 129.00 
C 62.51 127.71 49.13 133.43 40.00 126.00
C 39.61 124.98 47.39 124.66 46.00 123.00
C 45.82 123.34 44.37 123.96 44.00 124.00
C 35.93 122.71 29.84 116.60 23.00 113.00
C 29.47 132.40 55.20 133.82 72.00 129.00 Z"/>
</g>
<g fill="None" fill-opacity="0.0" stroke="#776065" stroke-opacity="0.28" stroke-width="0.3"><path d="
M 93.00 120.00 
C 93.00 120.00 93.20 120.60 93.00 121.00
C 92.00 123.05 88.71 126.66 87.00 128.00
C 88.87 126.76 92.81 123.91 94.00 122.00
C 94.74 120.54 94.91 119.67 95.00 118.00
C 95.05 117.01 94.89 115.98 95.00 115.00
C 94.32 116.45 93.74 118.55 93.00 120.00 Z"/>
</g>
<g fill="None" fill-opacity="0.0" stroke="#89777B" stroke-opacity="1.00" stroke-width="0.3"><path d="
M 44.00 124.00 
C 44.37 123.96 45.82 123.34 46.00 123.00
C 46.96 121.19 45.13 119.82 44.00 119.00
C 44.79 119.93 44.51 124.38 44.00 124.00 Z"/>
</g>
<g fill="None" fill-opacity="0.0" stroke="#68414A" stroke-opacity="0.69" stroke-width="0.3"><path d="
M 81.00 131.00 
C 82.98 130.19 85.21 129.19 87.00 128.00
C 88.71 126.66 92.00 123.05 93.00 121.00
C 88.84 123.91 85.22 128.60 81.00 131.00 Z"/>
</g>
<g fill="None" fill-opacity="0.0" stroke="#77626C" stroke-opacity="0.50" stroke-width="0.3"><path d="
M 29.00 129.00 
C 27.22 127.61 23.35 123.87 22.00 122.00
C 23.60 124.61 26.41 127.28 29.00 129.00 Z"/>
</g>
<g fill="#000000" fill-opacity="0.00" stroke="None">
<path d="
M 0.00 51.00 
C 2.70 44.75 4.54 33.52 12.70 30.70 C 20.86 27.87 22.74 17.02 31.69 15.69 C 40.65 14.37 47.45 9.73 55.08 5.08 C 62.70 0.42 73.50 8.74 80.00 0.00
L 0.00 0.00
L 0.00 51.00 Z"/>
</g>
<g fill="#C9C2C4" fill-opacity="0.16" stroke="None">
<path d="
M 0.00 51.00 
L 0.00 67.00
C 3.78 75.86 2.97 87.08 9.77 95.23 C 16.57 103.38 16.64 113.77 21.25 122.75 C 25.87 131.72 38.40 133.91 46.00 137.00
L 64.00 137.00
C 73.43 133.36 88.40 133.12 94.00 122.00
C 92.81 123.91 88.87 126.76 87.00 128.00
C 85.21 129.19 82.98 130.19 81.00 131.00
C 65.40 137.43 43.67 138.76 29.00 129.00
C 26.41 127.28 23.60 124.61 22.00 122.00
C 16.90 113.68 16.75 101.88 10.23 93.77 C 3.70 85.66 2.00 71.94 2.00 62.00
C 1.75 59.37 1.63 56.62 2.00 54.00
C 2.48 41.54 8.76 35.87 18.00 29.00
C 18.80 28.27 20.35 26.75 21.00 26.00
C 21.39 25.36 21.63 24.61 22.00 24.00
C 23.05 22.27 24.38 21.08 26.00 20.00
C 31.46 16.37 38.48 15.83 44.23 13.23 C 49.98 10.63 54.57 3.10 62.00 5.00 C 69.44 6.90 75.88 3.58 83.00 2.00
C 83.46 1.68 83.81 0.48 84.00 0.00
L 80.00 0.00
C 73.50 8.74 62.70 0.42 55.08 5.08 C 47.45 9.73 40.65 14.37 31.69 15.69 C 22.74 17.02 20.86 27.87 12.70 30.70 C 4.54 33.52 2.70 44.75 0.00 51.00 Z"/>
</g>
<g fill="#BE9DA7" fill-opacity="0.84" stroke="None">
<path d="
M 83.00 2.00 
C 86.91 1.13 92.19 -0.18 96.00 2.00
C 95.58 1.79 95.16 0.39 95.00 0.00
L 84.00 0.00
C 83.81 0.48 83.46 1.68 83.00 2.00 Z"/>
</g>
<g fill="#C7B1BE" fill-opacity="0.40" stroke="None">
<path d="
M 96.00 2.00 
C 96.38 2.22 97.00 2.00 97.00 2.00
C 97.80 2.14 98.16 2.85 99.00 3.00
C 98.21 2.28 97.54 0.88 97.00 0.00
L 95.00 0.00
C 95.16 0.39 95.58 1.79 96.00 2.00 Z"/>
</g>
<g fill="#D5D1D7" fill-opacity="0.09" stroke="None">
<path d="
M 99.00 3.00 
C 99.48 3.09 100.00 3.00 100.00 3.00
C 104.38 5.14 106.61 9.89 108.00 14.00
C 108.51 15.51 108.85 16.30 109.00 18.00
C 109.02 18.10 110.00 18.00 110.00 18.00
C 109.61 10.38 103.69 4.39 98.00 0.00
L 97.00 0.00
C 97.54 0.88 98.21 2.28 99.00 3.00 Z"/>
</g>
<g fill="#000000" fill-opacity="0.00" stroke="None">
<path d="
M 110.00 18.00 
C 110.01 18.20 110.03 21.00 110.00 21.00
C 111.10 26.01 111.26 32.30 111.00 38.00
C 114.55 38.95 117.95 41.82 120.00 45.00
C 120.20 45.40 120.00 46.00 120.00 46.00
C 125.51 49.59 129.43 60.56 129.00 67.00
C 128.97 67.50 129.00 68.00 129.00 68.00
C 129.25 68.25 130.00 68.00 130.00 68.00
L 130.00 0.00
L 98.00 0.00
C 103.69 4.39 109.61 10.38 110.00 18.00 Z"/>
</g>
<g fill="#743F49" fill-opacity="0.98" stroke="None">
<path d="
M 83.00 2.00 
C 75.88 3.58 69.44 6.90 62.00 5.00 C 54.57 3.10 49.98 10.63 44.23 13.23 C 38.48 15.83 31.46 16.37 26.00 20.00
C 24.89 20.86 22.94 22.99 22.00 24.00
C 21.63 24.61 21.39 25.36 21.00 26.00
C 20.13 27.42 19.25 28.07 18.00 29.00
C 8.76 35.87 2.48 41.54 2.00 54.00
C 1.90 56.66 2.00 59.34 2.00 62.00
C 2.00 71.94 3.70 85.66 10.23 93.77 C 16.75 101.88 16.90 113.68 22.00 122.00
C 23.35 123.87 27.22 127.61 29.00 129.00
C 43.67 138.76 65.40 137.43 81.00 131.00
C 85.22 128.60 88.84 123.91 93.00 121.00
C 93.20 120.60 93.00 120.00 93.00 120.00
C 93.00 109.74 99.31 109.25 105.75 103.75 C 112.18 98.24 115.23 94.10 120.00 88.00
C 121.68 85.85 123.42 83.13 125.00 81.00
C 125.65 79.78 126.28 78.96 127.00 78.00
C 127.05 77.50 127.00 77.00 127.00 77.00
C 127.01 75.64 127.78 75.24 128.00 74.00
C 128.11 72.35 128.07 65.61 128.00 64.00
C 127.10 58.00 123.67 51.81 120.00 47.00
C 117.14 45.81 114.17 41.83 112.00 40.00
C 110.64 39.54 109.59 38.17 109.00 37.00
C 106.13 31.33 108.81 22.40 107.01 15.99 C 105.20 9.58 101.29 6.48 97.00 2.00
C 97.00 2.00 96.38 2.22 96.00 2.00
C 92.19 -0.18 86.91 1.13 83.00 2.00
M 94.00 6.00 
C 107.81 10.36 105.01 26.15 105.00 38.00
C 100.88 38.15 97.33 40.54 93.00 40.00
C 95.10 29.22 88.81 18.52 79.77 13.23 C 70.73 7.94 81.98 6.81 86.00 6.00
C 88.98 5.47 90.97 5.04 94.00 6.00
M 69.00 41.00 
C 68.36 39.32 67.88 37.67 67.00 36.00
C 64.02 31.71 58.26 25.90 54.00 23.00
C 52.28 22.07 45.36 17.69 46.00 23.00
C 47.58 23.08 48.09 25.42 49.00 26.00
C 50.11 26.49 50.07 26.35 51.00 27.00
C 63.05 35.47 78.40 64.23 60.00 74.00
C 58.63 74.73 56.91 76.02 55.00 76.00
C 55.00 74.67 55.00 73.33 55.00 72.00
C 52.54 64.79 48.10 52.97 43.75 47.25 C 39.40 41.53 23.58 32.47 26.26 38.75 C 28.94 45.02 43.48 48.96 44.92 57.08 C 46.37 65.19 55.53 77.87 43.77 81.77 C 32.01 85.67 31.55 66.40 21.00 68.00
C 21.00 69.00 21.00 70.00 21.00 71.00
C 21.01 70.98 24.25 72.96 23.00 74.00
C 20.21 73.48 14.07 73.94 17.00 78.00
C 17.43 78.17 18.00 78.00 18.00 78.00
C 20.24 78.00 22.79 77.66 25.00 78.00
C 30.96 78.93 31.53 82.68 37.69 85.31 C 43.86 87.93 47.89 83.09 53.00 81.00
C 54.63 80.33 56.75 79.46 59.00 80.00
C 59.27 81.28 58.23 82.72 57.00 83.00
C 56.19 86.66 58.61 102.89 61.00 89.00 C 63.38 75.11 74.81 73.10 86.00 76.00
C 88.61 76.35 91.37 75.80 94.00 76.00
C 99.88 76.45 99.10 78.52 104.23 80.77 C 109.36 83.02 107.61 73.56 103.00 74.00
C 105.43 72.94 108.72 71.31 108.00 68.00
C 101.25 68.57 90.53 74.30 83.99 71.01 C 77.46 67.71 70.69 60.55 74.31 53.31 C 77.92 46.06 89.83 47.59 96.00 45.00 C 102.17 42.41 111.78 40.90 115.75 48.25 C 119.72 55.60 124.38 61.72 124.00 70.00 C 123.62 78.28 118.15 83.16 113.75 89.75 C 109.35 96.34 106.77 99.45 99.75 104.75 C 92.74 110.06 87.41 109.57 77.99 112.99 C 68.57 116.42 83.17 120.10 90.00 115.00
C 90.00 124.20 79.13 126.96 72.00 129.00
C 55.20 133.82 29.47 132.40 23.00 113.00
C 29.84 116.60 35.93 122.71 44.00 124.00
C 44.51 124.38 44.79 119.93 44.00 119.00
C 37.40 114.21 27.72 113.69 22.75 105.25 C 17.78 96.80 13.86 92.51 10.23 82.77 C 6.60 73.03 6.50 64.01 6.78 52.78 C 7.06 41.55 14.23 39.43 21.23 32.23 C 28.23 25.03 33.28 22.11 43.00 19.00
C 47.35 17.61 51.12 14.01 55.00 12.00
C 56.29 11.07 55.88 9.94 58.00 10.00
C 58.50 10.01 59.00 10.00 59.00 10.00
C 65.81 4.96 71.22 14.36 77.25 17.75 C 83.27 21.15 88.79 27.90 88.00 36.00 C 87.21 44.10 77.41 43.95 71.00 48.00
C 71.07 45.48 69.92 43.27 69.00 41.00
M 70.00 70.00 
C 69.81 62.82 76.38 70.31 70.00 70.00 Z"/>
</g>
<g fill="#673B48" fill-opacity="0.82" stroke="None">
<path d="
M 109.00 37.00 
C 107.77 33.26 109.00 26.97 109.00 23.00
C 109.00 21.36 109.15 19.64 109.00 18.00
C 108.85 16.30 108.51 15.51 108.00 14.00
C 106.13 10.02 102.60 6.73 100.00 3.00
C 100.00 3.00 99.48 3.09 99.00 3.00
C 98.16 2.85 97.80 2.14 97.00 2.00
C 101.29 6.48 105.20 9.58 107.01 15.99 C 108.81 22.40 106.13 31.33 109.00 37.00 Z"/>
</g>
<g fill="#7C656D" fill-opacity="0.39" stroke="None">
<path d="
M 108.00 14.00 
C 106.61 9.89 104.38 5.14 100.00 3.00
C 102.60 6.73 106.13 10.02 108.00 14.00 Z"/>
</g>
<g fill="#BC969C" fill-opacity="1.00" stroke="None">
<path d="
M 86.00 6.00 
C 88.42 5.84 91.62 5.57 94.00 6.00
C 90.97 5.04 88.98 5.47 86.00 6.00 Z"/>
</g>
<g fill="#F7F1F1" fill-opacity="1.00" stroke="None">
<path d="
M 94.00 6.00 
C 91.62 5.57 88.42 5.84 86.00 6.00
C 81.98 6.81 70.73 7.94 79.77 13.23 C 88.81 18.52 95.10 29.22 93.00 40.00
C 97.33 40.54 100.88 38.15 105.00 38.00
C 105.01 26.15 107.81 10.36 94.00 6.00 Z"/>
</g>
<g fill="#F8F5F5" fill-opacity="1.00" stroke="None">
<path d="
M 59.00 10.00 
C 58.91 9.92 45.78 19.80 54.70 22.30 C 63.62 24.81 63.08 31.79 70.00 34.00
C 69.48 36.19 71.14 39.62 69.00 41.00
C 69.92 43.27 71.07 45.48 71.00 48.00
C 77.41 43.95 87.21 44.10 88.00 36.00 C 88.79 27.90 83.27 21.15 77.25 17.75 C 71.22 14.36 65.81 4.96 59.00 10.00 Z"/>
</g>
<g fill="#C69DA4" fill-opacity="1.00" stroke="None">
<path d="
M 55.00 12.00 
C 56.23 11.36 57.04 10.72 58.00 10.00
C 55.88 9.94 56.29 11.07 55.00 12.00 Z"/>
</g>
<g fill="#EFDCE0" fill-opacity="1.00" stroke="None">
<path d="
M 55.00 12.00 
C 51.12 14.01 47.35 17.61 43.00 19.00
C 44.87 19.77 45.07 22.97 46.26 24.74 C 47.44 26.51 50.50 26.77 51.00 27.00
C 50.07 26.35 50.11 26.49 49.00 26.00
C 47.96 25.55 46.15 24.22 46.00 23.00
C 45.36 17.69 52.28 22.07 54.00 23.00
C 59.17 25.79 64.28 30.84 67.00 36.00
C 67.88 37.67 68.36 39.32 69.00 41.00
C 71.14 39.62 69.48 36.19 70.00 34.00
C 63.08 31.79 63.62 24.81 54.70 22.30 C 45.78 19.80 58.91 9.92 59.00 10.00
C 59.00 10.00 58.50 10.01 58.00 10.00
C 57.04 10.72 56.23 11.36 55.00 12.00 Z"/>
</g>
<g fill="#9C898E" fill-opacity="0.22" stroke="None">
<path d="
M 109.00 23.00 
C 109.05 23.15 110.00 23.00 110.00 23.00
C 110.00 22.50 109.95 21.01 110.00 21.00
C 110.03 21.00 110.01 18.20 110.00 18.00
C 110.00 18.00 109.02 18.10 109.00 18.00
C 109.15 19.64 109.00 21.36 109.00 23.00 Z"/>
</g>
<g fill="#F8F6F6" fill-opacity="1.00" stroke="None">
<path d="
M 44.00 119.00 
C 45.13 119.82 46.96 121.19 46.00 123.00
C 47.39 124.66 39.61 124.98 40.00 126.00
C 49.13 133.43 62.51 127.71 72.00 129.00
C 79.13 126.96 90.00 124.20 90.00 115.00
C 83.17 120.10 68.57 116.42 77.99 112.99 C 87.41 109.57 92.74 110.06 99.75 104.75 C 106.77 99.45 109.35 96.34 113.75 89.75 C 118.15 83.16 123.62 78.28 124.00 70.00 C 124.38 61.72 119.72 55.60 115.75 48.25 C 111.78 40.90 102.17 42.41 96.00 45.00 C 89.83 47.59 77.92 46.06 74.31 53.31 C 70.69 60.55 77.46 67.71 83.99 71.01 C 90.53 74.30 101.25 68.57 108.00 68.00
C 108.72 71.31 105.43 72.94 103.00 74.00
C 107.61 73.56 109.36 83.02 104.23 80.77 C 99.10 78.52 99.88 76.45 94.00 76.00
C 91.41 76.05 88.81 76.73 86.00 76.00
C 74.81 73.10 63.38 75.11 61.00 89.00 C 58.61 102.89 56.19 86.66 57.00 83.00
C 56.25 80.99 55.57 80.69 53.00 81.00
C 47.89 83.09 43.86 87.93 37.69 85.31 C 31.53 82.68 30.96 78.93 25.00 78.00
C 22.78 77.84 20.63 79.95 18.00 78.00
C 18.00 78.00 17.43 78.17 17.00 78.00
C 10.98 75.63 20.07 71.75 21.00 71.00
C 21.00 70.00 21.00 69.00 21.00 68.00
C 31.55 66.40 32.01 85.67 43.77 81.77 C 55.53 77.87 46.37 65.19 44.92 57.08 C 43.48 48.96 28.94 45.02 26.26 38.75 C 23.58 32.47 39.40 41.53 43.75 47.25 C 48.10 52.97 52.54 64.79 55.00 72.00
C 56.30 73.74 57.53 74.25 60.00 74.00
C 78.40 64.23 63.05 35.47 51.00 27.00
C 50.50 26.77 47.44 26.51 46.26 24.74 C 45.07 22.97 44.87 19.77 43.00 19.00
C 33.28 22.11 28.23 25.03 21.23 32.23 C 14.23 39.43 7.06 41.55 6.78 52.78 C 6.50 64.01 6.60 73.03 10.23 82.77 C 13.86 92.51 17.78 96.80 22.75 105.25 C 27.72 113.69 37.40 114.21 44.00 119.00 Z"/>
</g>
<g fill="#928385" fill-opacity="0.35" stroke="None">
<path d="
M 22.00 24.00 
C 22.94 22.99 24.89 20.86 26.00 20.00
C 24.38 21.08 23.05 22.27 22.00 24.00 Z"/>
</g>
<g fill="#E2E1E1" fill-opacity="0.07" stroke="None">
<path d="
M 110.00 23.00 
C 110.00 28.34 108.06 37.06 113.00 40.00
C 113.44 40.08 114.63 40.78 115.00 41.00
C 116.83 42.11 118.30 43.81 120.00 45.00
C 117.95 41.82 114.55 38.95 111.00 38.00
C 111.26 32.30 111.10 26.01 110.00 21.00
C 109.95 21.01 110.00 22.50 110.00 23.00 Z"/>
</g>
<g fill="#AB7E87" fill-opacity="1.00" stroke="None">
<path d="
M 49.00 26.00 
C 48.09 25.42 47.58 23.08 46.00 23.00
C 46.15 24.22 47.96 25.55 49.00 26.00 Z"/>
</g>
<g fill="#BC9CA2" fill-opacity="1.00" stroke="None">
<path d="
M 67.00 36.00 
C 64.28 30.84 59.17 25.79 54.00 23.00
C 58.26 25.90 64.02 31.71 67.00 36.00 Z"/>
</g>
<g fill="#866B71" fill-opacity="0.53" stroke="None">
<path d="
M 109.00 37.00 
C 109.59 38.17 110.64 39.54 112.00 40.00
C 112.45 40.15 113.00 40.00 113.00 40.00
C 108.06 37.06 110.00 28.34 110.00 23.00
C 110.00 23.00 109.05 23.15 109.00 23.00
C 109.00 26.97 107.77 33.26 109.00 37.00 Z"/>
</g>
<g fill="#A2868E" fill-opacity="0.34" stroke="None">
<path d="
M 18.00 29.00 
C 19.25 28.07 20.13 27.42 21.00 26.00
C 20.35 26.75 18.80 28.27 18.00 29.00 Z"/>
</g>
<g fill="#67434C" fill-opacity="0.65" stroke="None">
<path d="
M 120.00 47.00 
C 119.76 46.68 120.00 46.00 120.00 46.00
C 117.96 44.58 116.69 42.57 115.00 41.00
C 114.63 40.78 113.44 40.08 113.00 40.00
C 113.00 40.00 112.45 40.15 112.00 40.00
C 114.17 41.83 117.14 45.81 120.00 47.00 Z"/>
</g>
<g fill="#A89197" fill-opacity="0.23" stroke="None">
<path d="
M 120.00 46.00 
C 120.00 46.00 120.20 45.40 120.00 45.00
C 118.30 43.81 116.83 42.11 115.00 41.00
C 116.69 42.57 117.96 44.58 120.00 46.00 Z"/>
</g>
<g fill="#D0CACD" fill-opacity="0.15" stroke="None">
<path d="
M 120.00 47.00 
C 123.67 51.81 127.10 58.00 128.00 64.00
C 128.14 64.94 128.00 66.05 128.00 67.00
C 128.27 67.25 129.00 67.00 129.00 67.00
C 129.43 60.56 125.51 49.59 120.00 46.00
C 120.00 46.00 119.76 46.68 120.00 47.00 Z"/>
</g>
<g fill="#9B8891" fill-opacity="0.56" stroke="None">
<path d="
M 2.00 62.00 
C 2.00 59.34 1.90 56.66 2.00 54.00
C 1.63 56.62 1.75 59.37 2.00 62.00 Z"/>
</g>
<g fill="#5C3945" fill-opacity="0.77" stroke="None">
<path d="
M 128.00 74.00 
C 128.08 73.51 128.00 72.50 128.00 72.00
C 128.00 70.33 128.00 68.67 128.00 67.00
C 128.00 66.05 128.14 64.94 128.00 64.00
C 128.07 65.61 128.11 72.35 128.00 74.00 Z"/>
</g>
<g fill="#D0999F" fill-opacity="1.00" stroke="None">
<path d="
M 70.00 70.00 
C 76.38 70.31 69.81 62.82 70.00 70.00 Z"/>
</g>
<g fill="#000000" fill-opacity="0.00" stroke="None">
<path d="
M 0.00 137.00 
L 46.00 137.00
C 38.40 133.91 25.87 131.72 21.25 122.75 C 16.64 113.77 16.57 103.38 9.77 95.23 C 2.97 87.08 3.78 75.86 0.00 67.00
L 0.00 137.00 Z"/>
</g>
<g fill="#837982" fill-opacity="0.31" stroke="None">
<path d="
M 128.00 72.00 
C 128.34 71.77 129.00 72.00 129.00 72.00
C 128.99 71.50 129.00 71.00 129.00 71.00
C 129.00 70.00 129.00 69.00 129.00 68.00
C 129.00 68.00 128.97 67.50 129.00 67.00
C 129.00 67.00 128.27 67.25 128.00 67.00
C 128.00 68.67 128.00 70.33 128.00 72.00 Z"/>
</g>
<g fill="#FFFFFF" fill-opacity="0.01" stroke="None">
<path d="
M 129.00 71.00 
C 129.25 70.75 130.00 71.00 130.00 71.00
L 130.00 68.00
C 130.00 68.00 129.25 68.25 129.00 68.00
C 129.00 69.00 129.00 70.00 129.00 71.00 Z"/>
</g>
<g fill="#C09FA5" fill-opacity="1.00" stroke="None">
<path d="
M 17.00 78.00 
C 14.07 73.94 20.21 73.48 23.00 74.00
C 24.25 72.96 21.01 70.98 21.00 71.00
C 20.07 71.75 10.98 75.63 17.00 78.00 Z"/>
</g>
<g fill="#000000" fill-opacity="0.00" stroke="None">
<path d="
M 129.00 72.00 
C 129.06 74.06 128.51 75.77 127.00 77.00
C 127.00 77.00 127.05 77.50 127.00 78.00
C 126.80 80.15 125.81 81.87 124.00 83.00
C 123.91 83.48 124.00 84.00 124.00 84.00
C 122.47 88.24 118.69 93.42 115.00 96.00
C 114.78 96.36 115.00 97.00 115.00 97.00
C 113.22 100.63 106.57 107.25 103.00 109.00
C 102.60 109.20 102.00 109.00 102.00 109.00
C 100.61 111.22 98.22 111.81 96.00 113.00
C 95.61 114.57 96.94 117.22 95.00 118.00
C 94.91 119.67 94.74 120.54 94.00 122.00
C 88.40 133.12 73.43 133.36 64.00 137.00
L 130.00 137.00
L 130.00 71.00
C 130.00 71.00 129.25 70.75 129.00 71.00
C 129.00 71.00 128.99 71.50 129.00 72.00 Z"/>
</g>
<g fill="#E4B3BD" fill-opacity="1.00" stroke="None">
<path d="
M 60.00 74.00 
C 57.53 74.25 56.30 73.74 55.00 72.00
C 55.00 73.33 55.00 74.67 55.00 76.00
C 56.91 76.02 58.63 74.73 60.00 74.00 Z"/>
</g>
<g fill="#B7B1B5" fill-opacity="0.12" stroke="None">
<path d="
M 128.00 74.00 
C 127.78 75.24 127.01 75.64 127.00 77.00
C 128.51 75.77 129.06 74.06 129.00 72.00
C 129.00 72.00 128.34 71.77 128.00 72.00
C 128.00 72.50 128.08 73.51 128.00 74.00 Z"/>
</g>
<g fill="#BB9EA0" fill-opacity="1.00" stroke="None">
<path d="
M 94.00 76.00 
C 91.37 75.80 88.61 76.35 86.00 76.00
C 88.81 76.73 91.41 76.05 94.00 76.00 Z"/>
</g>
<g fill="#C1A2AC" fill-opacity="1.00" stroke="None">
<path d="
M 25.00 78.00 
C 22.79 77.66 20.24 78.00 18.00 78.00
C 20.63 79.95 22.78 77.84 25.00 78.00 Z"/>
</g>
<g fill="#D3CAD0" fill-opacity="0.07" stroke="None">
<path d="
M 125.00 81.00 
C 124.63 81.70 124.14 82.21 124.00 83.00
C 125.81 81.87 126.80 80.15 127.00 78.00
C 126.28 78.96 125.65 79.78 125.00 81.00 Z"/>
</g>
<g fill="#C1969E" fill-opacity="1.00" stroke="None">
<path d="
M 53.00 81.00 
C 55.57 80.69 56.25 80.99 57.00 83.00
C 58.23 82.72 59.27 81.28 59.00 80.00
C 56.75 79.46 54.63 80.33 53.00 81.00 Z"/>
</g>
<g fill="#6C5057" fill-opacity="0.47" stroke="None">
<path d="
M 120.00 88.00 
C 121.03 86.58 122.73 85.22 124.00 84.00
C 124.00 84.00 123.91 83.48 124.00 83.00
C 124.14 82.21 124.63 81.70 125.00 81.00
C 123.42 83.13 121.68 85.85 120.00 88.00 Z"/>
</g>
<g fill="#B0A6A7" fill-opacity="0.10" stroke="None">
<path d="
M 120.00 88.00 
C 118.36 90.25 116.58 93.46 115.00 96.00
C 118.69 93.42 122.47 88.24 124.00 84.00
C 122.73 85.22 121.03 86.58 120.00 88.00 Z"/>
</g>
<g fill="#6C4049" fill-opacity="0.65" stroke="None">
<path d="
M 93.00 120.00 
C 93.74 118.55 94.32 116.45 95.00 115.00
C 95.37 111.64 99.21 110.10 102.00 109.00
C 102.00 109.00 102.60 109.20 103.00 109.00
C 105.99 104.72 110.77 99.95 115.00 97.00
C 115.00 97.00 114.78 96.36 115.00 96.00
C 116.58 93.46 118.36 90.25 120.00 88.00
C 115.23 94.10 112.18 98.24 105.75 103.75 C 99.31 109.25 93.00 109.74 93.00 120.00 Z"/>
</g>
<g fill="#AC999E" fill-opacity="0.07" stroke="None">
<path d="
M 103.00 109.00 
C 106.57 107.25 113.22 100.63 115.00 97.00
C 110.77 99.95 105.99 104.72 103.00 109.00 Z"/>
</g>
<g fill="#C4B7B9" fill-opacity="0.08" stroke="None">
<path d="
M 95.00 115.00 
C 94.89 115.98 95.05 117.01 95.00 118.00
C 96.94 117.22 95.61 114.57 96.00 113.00
C 98.22 111.81 100.61 111.22 102.00 109.00
C 99.21 110.10 95.37 111.64 95.00 115.00 Z"/>
</g>
<g fill="#EFD9DC" fill-opacity="1.00" stroke="None">
<path d="
M 72.00 129.00 
C 62.51 127.71 49.13 133.43 40.00 126.00
C 39.61 124.98 47.39 124.66 46.00 123.00
C 45.82 123.34 44.37 123.96 44.00 124.00
C 35.93 122.71 29.84 116.60 23.00 113.00
C 29.47 132.40 55.20 133.82 72.00 129.00 Z"/>
</g>
<g fill="#776065" fill-opacity="0.28" stroke="None">
<path d="
M 93.00 120.00 
C 93.00 120.00 93.20 120.60 93.00 121.00
C 92.00 123.05 88.71 126.66 87.00 128.00
C 88.87 126.76 92.81 123.91 94.00 122.00
C 94.74 120.54 94.91 119.67 95.00 118.00
C 95.05 117.01 94.89 115.98 95.00 115.00
C 94.32 116.45 93.74 118.55 93.00 120.00 Z"/>
</g>
<g fill="#89777B" fill-opacity="1.00" stroke="None">
<path d="
M 44.00 124.00 
C 44.37 123.96 45.82 123.34 46.00 123.00
C 46.96 121.19 45.13 119.82 44.00 119.00
C 44.79 119.93 44.51 124.38 44.00 124.00 Z"/>
</g>
<g fill="#68414A" fill-opacity="0.69" stroke="None">
<path d="
M 81.00 131.00 
C 82.98 130.19 85.21 129.19 87.00 128.00
C 88.71 126.66 92.00 123.05 93.00 121.00
C 88.84 123.91 85.22 128.60 81.00 131.00 Z"/>
</g>
<g fill="#77626C" fill-opacity="0.50" stroke="None">
<path d="
M 29.00 129.00 
C 27.22 127.61 23.35 123.87 22.00 122.00
C 23.60 124.61 26.41 127.28 29.00 129.00 Z"/>
</g>
</svg>