<svg xmlns="http://www.w3.org/2000/svg" xmlns:v="https://svgstorm.com"
viewBox = "0 0 111 175"
width="111"
height="175">
<g fill="None" fill-opacity="0.0" stroke="#000000" stroke-opacity="0.00" stroke-width="0.3"><path d="
M 0.00 102.00 
C 2.63 94.49 10.20 91.81 11.98 83.98 C 13.75 76.14 22.87 71.46 30.00 71.00
C 29.46 67.98 28.13 65.16 28.00 62.00
C 25.46 52.48 19.38 41.93 19.00 32.00
C 18.98 31.50 19.00 31.00 19.00 31.00
C 2.42 10.58 38.31 -8.95 46.92 12.08 C 55.52 33.11 53.88 49.49 62.00 70.00
C 64.13 67.57 62.47 63.18 63.00 60.00
C 63.00 56.33 63.00 52.67 63.00 49.00
C 63.00 47.00 63.00 45.00 63.00 43.00
C 63.00 39.90 63.77 36.36 64.00 34.00
C 64.00 23.24 62.59 7.93 74.08 2.08 C 85.57 -3.77 98.05 5.91 98.00 18.00
C 98.00 19.00 98.00 20.00 98.00 21.00
C 98.62 23.51 98.60 24.54 98.00 27.00
C 98.00 28.00 98.00 29.00 98.00 30.00
C 98.00 35.88 99.25 49.61 96.00 54.00
C 96.00 54.50 96.00 55.00 96.00 55.00
C 96.00 62.65 96.64 68.49 95.00 76.00 C 93.36 83.51 97.07 87.12 102.75 90.25 C 108.44 93.37 106.48 100.50 111.00 104.00
L 111.00 0.00
L 0.00 0.00
L 0.00 102.00 Z"/>
</g>
<g fill="None" fill-opacity="0.0" stroke="#C9C7CA" stroke-opacity="0.18" stroke-width="0.3"><path d="
M 64.00 34.00 
C 64.00 34.50 64.00 35.50 64.00 36.00
C 64.34 36.23 65.00 36.00 65.00 36.00
C 65.00 33.35 64.86 30.65 65.00 28.00
C 65.38 20.93 66.26 13.11 70.00 7.00
C 70.97 5.41 72.32 3.78 74.00 3.00
C 75.08 2.50 76.76 2.17 78.00 2.00
C 81.20 1.55 84.51 2.16 87.00 3.00
C 88.16 3.18 88.96 3.43 90.00 4.00
C 91.72 4.94 93.02 6.40 94.00 8.00
C 95.44 10.35 96.65 13.28 97.00 16.00
C 97.06 16.49 97.00 17.50 97.00 18.00
C 97.34 18.23 98.00 18.00 98.00 18.00
C 98.05 5.91 85.57 -3.77 74.08 2.08 C 62.59 7.93 64.00 23.24 64.00 34.00 Z"/>
</g>
<g fill="None" fill-opacity="0.0" stroke="#D4D7D8" stroke-opacity="0.15" stroke-width="0.3"><path d="
M 19.00 31.00 
C 18.61 28.64 18.43 26.41 18.00 24.00
C 17.47 21.05 17.36 18.94 18.00 16.00
C 18.16 14.38 18.29 12.47 19.00 11.00
C 19.72 9.50 20.83 8.93 22.00 8.00
C 27.20 3.84 33.73 2.16 40.00 6.00
C 42.27 7.39 44.69 9.75 46.00 12.00
C 56.51 30.07 51.31 55.73 62.00 74.00
C 65.03 73.02 63.70 69.36 64.00 67.00
C 64.08 64.67 64.00 62.33 64.00 60.00
C 63.99 59.93 63.00 60.00 63.00 60.00
C 62.47 63.18 64.13 67.57 62.00 70.00
C 53.88 49.49 55.52 33.11 46.92 12.08 C 38.31 -8.95 2.42 10.58 19.00 31.00 Z"/>
</g>
<g fill="None" fill-opacity="0.0" stroke="#713E48" stroke-opacity="0.97" stroke-width="0.3"><path d="
M 74.00 3.00 
C 73.38 3.36 70.41 6.43 70.00 7.00
C 66.26 13.11 65.38 20.93 65.00 28.00
C 65.47 38.92 67.69 53.18 65.00 64.00
C 64.88 65.35 64.18 66.20 64.00 67.00
C 63.70 69.36 65.03 73.02 62.00 74.00
C 51.31 55.73 56.51 30.07 46.00 12.00
C 45.04 10.60 41.33 6.96 40.00 6.00
C 33.73 2.16 27.20 3.84 22.00 8.00
C 21.42 8.57 19.31 10.48 19.00 11.00
C 18.29 12.47 18.16 14.38 18.00 16.00
C 17.77 18.33 17.56 21.71 18.00 24.00
C 19.10 29.69 22.11 37.79 23.00 43.00
C 23.55 44.83 24.28 46.49 25.00 48.00
C 26.07 50.25 25.73 51.38 26.00 53.00
C 26.86 56.05 28.09 58.96 29.00 62.00
C 30.05 65.51 30.97 69.18 31.00 73.00
C 13.35 72.65 12.57 92.71 2.00 102.00
C 1.82 103.37 1.91 111.58 2.00 113.00
C 3.57 122.87 15.76 132.63 22.00 139.00
C 27.81 141.42 29.51 147.39 29.00 153.00
C 30.46 155.54 31.50 158.69 33.00 161.00
C 34.57 162.91 36.22 164.41 38.00 166.00
C 39.54 167.10 41.58 169.11 43.00 170.00
C 45.37 171.16 48.41 172.30 51.00 173.00
C 53.38 173.64 55.40 173.86 58.00 174.00
C 60.65 174.14 63.35 174.00 66.00 174.00
C 67.32 174.00 68.68 174.09 70.00 174.00
C 77.68 173.50 82.06 169.87 88.25 165.25 C 94.44 160.63 92.89 151.32 95.00 145.00
C 95.88 142.36 99.32 140.82 101.00 139.00
C 105.57 133.21 108.01 126.92 110.00 120.00
C 109.70 116.69 110.23 113.31 110.00 110.00
C 109.79 106.88 109.15 103.87 108.00 101.00
C 107.17 99.37 105.16 96.74 104.00 95.00
C 101.29 91.70 96.42 89.78 94.25 86.75 C 92.09 83.71 94.00 72.77 94.00 69.00
C 94.00 66.67 94.00 64.33 94.00 62.00
C 94.00 58.19 92.89 51.86 95.00 49.00
C 95.22 48.70 95.95 48.23 96.00 48.00
C 96.00 42.49 97.20 37.28 97.00 32.00
C 96.81 27.65 97.15 20.15 97.00 16.00
C 96.65 13.28 95.44 10.35 94.00 8.00
C 93.42 7.19 90.75 4.54 90.00 4.00
C 88.96 3.43 88.16 3.18 87.00 3.00
C 84.78 2.66 79.49 1.95 78.00 2.00
C 76.76 2.17 75.08 2.50 74.00 3.00
M 86.00 86.00 
C 82.79 87.04 78.45 85.24 76.00 85.00
C 65.06 85.00 49.51 80.63 46.00 95.00
C 30.07 90.15 51.77 106.50 45.00 114.00
C 44.35 115.35 43.30 116.38 42.00 117.00
C 21.96 126.64 4.31 80.84 29.00 78.00
C 35.06 77.30 30.64 83.45 37.00 84.00
C 37.00 82.00 37.00 80.00 37.00 78.00
C 35.62 66.79 30.66 51.13 27.07 40.93 C 23.49 30.72 16.87 9.78 32.00 9.00 C 47.13 8.23 45.94 30.57 48.00 40.00
C 49.95 48.93 51.73 58.12 54.00 67.00
C 54.93 70.63 56.95 79.46 63.03 78.97 C 69.10 78.49 69.00 68.62 69.00 64.00
C 69.00 52.70 68.98 40.52 70.00 30.00
C 70.00 20.82 74.21 -1.33 87.22 7.78 C 100.24 16.88 89.90 31.77 91.22 44.22 C 92.54 56.68 87.12 72.96 89.00 86.00
C 88.00 86.00 87.00 86.00 86.00 86.00
M 41.00 122.00 
C 47.30 120.09 48.42 111.95 54.00 115.00
C 48.88 120.91 39.21 128.45 44.00 138.00
C 48.76 137.95 47.59 126.02 54.08 122.08 C 60.57 118.15 66.87 123.14 74.00 123.00
C 75.46 122.61 77.60 119.42 76.00 118.00
C 69.86 115.06 60.29 116.37 54.92 111.08 C 49.55 105.79 46.38 98.56 52.25 92.25 C 58.13 85.95 69.45 90.68 77.00 90.00 C 84.55 89.32 93.85 90.72 99.25 95.75 C 104.64 100.79 106.08 110.12 106.00 117.00 C 105.92 123.88 100.80 131.88 96.75 136.75 C 92.69 141.61 86.42 147.25 81.77 149.77 C 77.12 152.29 62.63 157.59 70.03 159.97 C 77.43 162.36 83.20 150.82 90.00 151.00
C 84.24 178.23 38.83 175.08 32.00 150.00
C 39.15 152.73 45.58 158.86 54.00 158.00
C 53.14 150.89 41.43 151.57 36.30 146.70 C 31.18 141.82 24.70 138.23 23.00 131.00
C 27.62 131.18 31.31 126.88 33.00 123.00
C 35.86 123.35 38.39 122.73 41.00 122.00
M 12.00 97.00 
C 16.21 106.12 16.22 111.02 24.70 118.30 C 33.17 125.58 14.98 130.36 11.08 120.92 C 7.18 111.48 1.86 103.95 12.00 97.00 Z"/>
</g>
<g fill="None" fill-opacity="0.0" stroke="#6C4F59" stroke-opacity="0.72" stroke-width="0.3"><path d="
M 87.00 3.00 
C 84.51 2.16 81.20 1.55 78.00 2.00
C 79.49 1.95 84.78 2.66 87.00 3.00 Z"/>
</g>
<g fill="None" fill-opacity="0.0" stroke="#8B8189" stroke-opacity="0.42" stroke-width="0.3"><path d="
M 70.00 7.00 
C 70.41 6.43 73.38 3.36 74.00 3.00
C 72.32 3.78 70.97 5.41 70.00 7.00 Z"/>
</g>
<g fill="None" fill-opacity="0.0" stroke="#847078" stroke-opacity="0.58" stroke-width="0.3"><path d="
M 94.00 8.00 
C 93.02 6.40 91.72 4.94 90.00 4.00
C 90.75 4.54 93.42 7.19 94.00 8.00 Z"/>
</g>
<g fill="None" fill-opacity="0.0" stroke="#7A6469" stroke-opacity="0.57" stroke-width="0.3"><path d="
M 46.00 12.00 
C 44.69 9.75 42.27 7.39 40.00 6.00
C 41.33 6.96 45.04 10.60 46.00 12.00 Z"/>
</g>
<g fill="None" fill-opacity="0.0" stroke="#F9F6F7" stroke-opacity="1.00" stroke-width="0.3"><path d="
M 70.00 30.00 
C 70.00 41.30 70.02 53.48 69.00 64.00
C 69.00 68.62 69.10 78.49 63.03 78.97 C 56.95 79.46 54.93 70.63 54.00 67.00
C 48.89 58.40 48.57 49.02 48.00 40.00
C 45.94 30.57 47.13 8.23 32.00 9.00 C 16.87 9.78 23.49 30.72 27.07 40.93 C 30.66 51.13 35.62 66.79 37.00 78.00
C 37.17 79.41 39.13 87.07 34.32 84.66 C 29.51 82.25 34.40 79.13 29.00 78.00
C 4.31 80.84 21.96 126.64 42.00 117.00
C 42.25 116.85 44.89 114.18 45.00 114.00
C 51.77 106.50 30.07 90.15 46.00 95.00
C 49.51 80.63 65.06 85.00 76.00 85.00
C 78.34 85.00 84.76 86.29 86.00 86.00
C 87.00 86.00 88.00 86.00 89.00 86.00
C 87.12 72.96 92.54 56.68 91.22 44.22 C 89.90 31.77 100.24 16.88 87.22 7.78 C 74.21 -1.33 70.00 20.82 70.00 30.00 Z"/>
</g>
<g fill="None" fill-opacity="0.0" stroke="#A29398" stroke-opacity="0.64" stroke-width="0.3"><path d="
M 19.00 11.00 
C 19.31 10.48 21.42 8.57 22.00 8.00
C 20.83 8.93 19.72 9.50 19.00 11.00 Z"/>
</g>
<g fill="None" fill-opacity="0.0" stroke="#927F83" stroke-opacity="0.60" stroke-width="0.3"><path d="
M 18.00 24.00 
C 17.56 21.71 17.77 18.33 18.00 16.00
C 17.36 18.94 17.47 21.05 18.00 24.00 Z"/>
</g>
<g fill="None" fill-opacity="0.0" stroke="#67474D" stroke-opacity="0.82" stroke-width="0.3"><path d="
M 97.00 32.00 
C 96.98 31.50 97.00 30.50 97.00 30.00
C 97.00 26.00 97.00 22.00 97.00 18.00
C 97.00 17.50 97.06 16.49 97.00 16.00
C 97.15 20.15 96.81 27.65 97.00 32.00 Z"/>
</g>
<g fill="None" fill-opacity="0.0" stroke="#A3999D" stroke-opacity="0.29" stroke-width="0.3"><path d="
M 97.00 30.00 
C 97.34 29.77 98.00 30.00 98.00 30.00
C 98.00 29.00 98.00 28.00 98.00 27.00
C 98.00 25.00 98.00 23.00 98.00 21.00
C 98.00 20.00 98.00 19.00 98.00 18.00
C 98.00 18.00 97.34 18.23 97.00 18.00
C 97.00 22.00 97.00 26.00 97.00 30.00 Z"/>
</g>
<g fill="None" fill-opacity="0.0" stroke="#FFFFFF" stroke-opacity="0.01" stroke-width="0.3"><path d="
M 98.00 27.00 
C 98.60 24.54 98.62 23.51 98.00 21.00
C 98.00 23.00 98.00 25.00 98.00 27.00 Z"/>
</g>
<g fill="None" fill-opacity="0.0" stroke="#664651" stroke-opacity="0.69" stroke-width="0.3"><path d="
M 19.00 31.00 
C 19.00 31.00 18.98 31.50 19.00 32.00
C 21.63 34.02 22.05 39.86 23.00 43.00
C 22.11 37.79 19.10 29.69 18.00 24.00
C 18.43 26.41 18.61 28.64 19.00 31.00 Z"/>
</g>
<g fill="None" fill-opacity="0.0" stroke="#5F444B" stroke-opacity="0.84" stroke-width="0.3"><path d="
M 65.00 36.00 
C 65.00 45.22 65.79 54.82 65.00 64.00
C 67.69 53.18 65.47 38.92 65.00 28.00
C 64.86 30.65 65.00 33.35 65.00 36.00 Z"/>
</g>
<g fill="None" fill-opacity="0.0" stroke="#A78787" stroke-opacity="1.00" stroke-width="0.3"><path d="
M 69.00 64.00 
C 70.02 53.48 70.00 41.30 70.00 30.00
C 68.98 40.52 69.00 52.70 69.00 64.00 Z"/>
</g>
<g fill="None" fill-opacity="0.0" stroke="#D6D4D6" stroke-opacity="0.16" stroke-width="0.3"><path d="
M 97.00 32.00 
C 97.20 37.28 96.00 42.49 96.00 48.00
C 96.00 50.00 96.00 52.00 96.00 54.00
C 99.25 49.61 98.00 35.88 98.00 30.00
C 98.00 30.00 97.34 29.77 97.00 30.00
C 97.00 30.50 96.98 31.50 97.00 32.00 Z"/>
</g>
<g fill="None" fill-opacity="0.0" stroke="#BEB7BA" stroke-opacity="0.13" stroke-width="0.3"><path d="
M 28.00 62.00 
C 28.13 62.22 29.00 62.00 29.00 62.00
C 28.09 58.96 26.86 56.05 26.00 53.00
C 25.56 51.43 25.51 49.57 25.00 48.00
C 24.28 46.49 23.55 44.83 23.00 43.00
C 22.05 39.86 21.63 34.02 19.00 32.00
C 19.38 41.93 25.46 52.48 28.00 62.00 Z"/>
</g>
<g fill="None" fill-opacity="0.0" stroke="#FFFFFF" stroke-opacity="0.01" stroke-width="0.3"><path d="
M 63.00 43.00 
C 63.02 42.90 64.00 43.00 64.00 43.00
C 64.00 40.67 64.00 38.33 64.00 36.00
C 64.00 35.50 64.00 34.50 64.00 34.00
C 63.77 36.36 63.00 39.90 63.00 43.00 Z"/>
</g>
<g fill="None" fill-opacity="0.0" stroke="#BEB7BD" stroke-opacity="0.35" stroke-width="0.3"><path d="
M 64.00 43.00 
C 64.00 45.00 64.00 47.00 64.00 49.00
C 64.00 52.67 64.00 56.33 64.00 60.00
C 64.00 62.33 64.08 64.67 64.00 67.00
C 64.18 66.20 64.88 65.35 65.00 64.00
C 65.79 54.82 65.00 45.22 65.00 36.00
C 65.00 36.00 64.34 36.23 64.00 36.00
C 64.00 38.33 64.00 40.67 64.00 43.00 Z"/>
</g>
<g fill="None" fill-opacity="0.0" stroke="#EBD5D9" stroke-opacity="1.00" stroke-width="0.3"><path d="
M 54.00 67.00 
C 51.73 58.12 49.95 48.93 48.00 40.00
C 48.57 49.02 48.89 58.40 54.00 67.00 Z"/>
</g>
<g fill="None" fill-opacity="0.0" stroke="#BFFFFF" stroke-opacity="0.02" stroke-width="0.3"><path d="
M 63.00 49.00 
C 63.02 49.10 64.00 49.00 64.00 49.00
C 64.00 47.00 64.00 45.00 64.00 43.00
C 64.00 43.00 63.02 42.90 63.00 43.00
C 63.00 45.00 63.00 47.00 63.00 49.00 Z"/>
</g>
<g fill="None" fill-opacity="0.0" stroke="#60363E" stroke-opacity="0.71" stroke-width="0.3"><path d="
M 26.00 53.00 
C 25.73 51.38 26.07 50.25 25.00 48.00
C 25.51 49.57 25.56 51.43 26.00 53.00 Z"/>
</g>
<g fill="None" fill-opacity="0.0" stroke="#A899A5" stroke-opacity="0.38" stroke-width="0.3"><path d="
M 95.00 49.00 
C 94.59 50.78 95.00 53.17 95.00 55.00
C 95.02 55.10 96.00 55.00 96.00 55.00
C 96.00 55.00 96.00 54.50 96.00 54.00
C 96.00 52.00 96.00 50.00 96.00 48.00
C 95.95 48.23 95.22 48.70 95.00 49.00 Z"/>
</g>
<g fill="None" fill-opacity="0.0" stroke="#F4FFFF" stroke-opacity="0.01" stroke-width="0.3"><path d="
M 63.00 60.00 
C 63.00 60.00 63.99 59.93 64.00 60.00
C 64.00 56.33 64.00 52.67 64.00 49.00
C 64.00 49.00 63.02 49.10 63.00 49.00
C 63.00 52.67 63.00 56.33 63.00 60.00 Z"/>
</g>
<g fill="None" fill-opacity="0.0" stroke="#755562" stroke-opacity="0.81" stroke-width="0.3"><path d="
M 94.00 62.00 
C 94.01 61.93 95.00 62.00 95.00 62.00
C 95.04 59.67 95.00 57.33 95.00 55.00
C 95.00 53.17 94.59 50.78 95.00 49.00
C 92.89 51.86 94.00 58.19 94.00 62.00 Z"/>
</g>
<g fill="None" fill-opacity="0.0" stroke="#DBDBDE" stroke-opacity="0.16" stroke-width="0.3"><path d="
M 95.00 62.00 
C 94.96 64.42 94.16 67.30 94.00 69.00
C 94.00 72.77 92.09 83.71 94.25 86.75 C 96.42 89.78 101.29 91.70 104.00 95.00
C 105.60 96.95 106.98 98.47 108.00 101.00
C 109.15 103.87 109.79 106.88 110.00 110.00
C 110.01 110.06 111.00 110.00 111.00 110.00
L 111.00 104.00
C 106.48 100.50 108.44 93.37 102.75 90.25 C 97.07 87.12 93.36 83.51 95.00 76.00 C 96.64 68.49 96.00 62.65 96.00 55.00
C 96.00 55.00 95.02 55.10 95.00 55.00
C 95.00 57.33 95.04 59.67 95.00 62.00 Z"/>
</g>
<g fill="None" fill-opacity="0.0" stroke="#D9DADB" stroke-opacity="0.17" stroke-width="0.3"><path d="
M 0.00 102.00 
L 0.00 111.00
C 1.23 127.20 22.17 132.93 27.00 147.00
C 26.27 143.94 23.34 142.74 22.00 140.00
C 21.80 139.60 22.00 139.00 22.00 139.00
C 15.76 132.63 3.57 122.87 2.00 113.00
C 1.54 110.08 1.34 104.88 2.00 102.00
C 12.57 92.71 13.35 72.65 31.00 73.00
C 30.97 69.18 30.05 65.51 29.00 62.00
C 29.00 62.00 28.13 62.22 28.00 62.00
C 28.13 65.16 29.46 67.98 30.00 71.00
C 22.87 71.46 13.75 76.14 11.98 83.98 C 10.20 91.81 2.63 94.49 0.00 102.00 Z"/>
</g>
<g fill="None" fill-opacity="0.0" stroke="#9E8E97" stroke-opacity="0.49" stroke-width="0.3"><path d="
M 94.00 69.00 
C 94.16 67.30 94.96 64.42 95.00 62.00
C 95.00 62.00 94.01 61.93 94.00 62.00
C 94.00 64.33 94.00 66.67 94.00 69.00 Z"/>
</g>
<g fill="None" fill-opacity="0.0" stroke="#C1A3A9" stroke-opacity="1.00" stroke-width="0.3"><path d="
M 29.00 78.00 
C 34.40 79.13 29.51 82.25 34.32 84.66 C 39.13 87.07 37.17 79.41 37.00 78.00
C 37.00 80.00 37.00 82.00 37.00 84.00
C 30.64 83.45 35.06 77.30 29.00 78.00 Z"/>
</g>
<g fill="None" fill-opacity="0.0" stroke="#BB9DA0" stroke-opacity="1.00" stroke-width="0.3"><path d="
M 86.00 86.00 
C 84.76 86.29 78.34 85.00 76.00 85.00
C 78.45 85.24 82.79 87.04 86.00 86.00 Z"/>
</g>
<g fill="None" fill-opacity="0.0" stroke="#F9F6F6" stroke-opacity="1.00" stroke-width="0.3"><path d="
M 76.00 118.00 
C 80.91 120.35 78.13 122.92 74.00 123.00
C 66.87 123.14 60.57 118.15 54.08 122.08 C 47.59 126.02 48.76 137.95 44.00 138.00
C 39.49 138.04 39.25 127.48 43.00 127.00
C 42.29 125.32 40.99 123.92 41.00 122.00
C 38.39 122.73 35.86 123.35 33.00 123.00
C 31.31 126.88 27.62 131.18 23.00 131.00
C 24.70 138.23 31.18 141.82 36.30 146.70 C 41.43 151.57 53.14 150.89 54.00 158.00
C 45.58 158.86 39.15 152.73 32.00 150.00
C 38.83 175.08 84.24 178.23 90.00 151.00
C 83.20 150.82 77.43 162.36 70.03 159.97 C 62.63 157.59 77.12 152.29 81.77 149.77 C 86.42 147.25 92.69 141.61 96.75 136.75 C 100.80 131.88 105.92 123.88 106.00 117.00 C 106.08 110.12 104.64 100.79 99.25 95.75 C 93.85 90.72 84.55 89.32 77.00 90.00 C 69.45 90.68 58.13 85.95 52.25 92.25 C 46.38 98.56 49.55 105.79 54.92 111.08 C 60.29 116.37 69.86 115.06 76.00 118.00 Z"/>
</g>
<g fill="None" fill-opacity="0.0" stroke="#847D79" stroke-opacity="0.62" stroke-width="0.3"><path d="
M 108.00 101.00 
C 106.98 98.47 105.60 96.95 104.00 95.00
C 105.16 96.74 107.17 99.37 108.00 101.00 Z"/>
</g>
<g fill="None" fill-opacity="0.0" stroke="#F5ECED" stroke-opacity="1.00" stroke-width="0.3"><path d="
M 12.00 97.00 
C 1.86 103.95 7.18 111.48 11.08 120.92 C 14.98 130.36 33.17 125.58 24.70 118.30 C 16.22 111.02 16.21 106.12 12.00 97.00 Z"/>
</g>
<g fill="None" fill-opacity="0.0" stroke="#5B3642" stroke-opacity="0.79" stroke-width="0.3"><path d="
M 2.00 113.00 
C 1.91 111.58 1.82 103.37 2.00 102.00
C 1.34 104.88 1.54 110.08 2.00 113.00 Z"/>
</g>
<g fill="None" fill-opacity="0.0" stroke="#AF8792" stroke-opacity="0.78" stroke-width="0.3"><path d="
M 110.00 120.00 
C 110.04 119.87 111.00 120.00 111.00 120.00
L 111.00 110.00
C 111.00 110.00 110.01 110.06 110.00 110.00
C 110.23 113.31 109.70 116.69 110.00 120.00 Z"/>
</g>
<g fill="None" fill-opacity="0.0" stroke="#000000" stroke-opacity="0.00" stroke-width="0.3"><path d="
M 0.00 175.00 
L 52.00 175.00
C 51.84 174.67 51.12 174.26 51.00 174.00
C 40.36 171.89 29.14 163.24 27.00 152.00
C 26.33 150.16 27.32 148.36 27.00 147.00
C 22.17 132.93 1.23 127.20 0.00 111.00
L 0.00 175.00 Z"/>
</g>
<g fill="None" fill-opacity="0.0" stroke="#E9CED1" stroke-opacity="1.00" stroke-width="0.3"><path d="
M 41.00 122.00 
C 40.99 123.92 42.29 125.32 43.00 127.00
C 39.25 127.48 39.49 138.04 44.00 138.00
C 39.21 128.45 48.88 120.91 54.00 115.00
C 48.42 111.95 47.30 120.09 41.00 122.00 Z"/>
</g>
<g fill="None" fill-opacity="0.0" stroke="#AA7984" stroke-opacity="1.00" stroke-width="0.3"><path d="
M 42.00 117.00 
C 43.30 116.38 44.35 115.35 45.00 114.00
C 44.89 114.18 42.25 116.85 42.00 117.00 Z"/>
</g>
<g fill="None" fill-opacity="0.0" stroke="#776161" stroke-opacity="1.00" stroke-width="0.3"><path d="
M 74.00 123.00 
C 78.13 122.92 80.91 120.35 76.00 118.00
C 77.60 119.42 75.46 122.61 74.00 123.00 Z"/>
</g>
<g fill="None" fill-opacity="0.0" stroke="#D9D5D9" stroke-opacity="0.22" stroke-width="0.3"><path d="
M 101.00 139.00 
C 99.76 140.57 95.61 143.51 95.00 145.00
C 92.89 151.32 94.44 160.63 88.25 165.25 C 82.06 169.87 77.68 173.50 70.00 174.00
C 69.93 174.01 70.00 175.00 70.00 175.00
L 75.00 175.00
C 82.95 171.01 95.47 165.03 95.93 153.93 C 96.38 142.82 106.75 135.78 111.00 126.00
L 111.00 120.00
C 111.00 120.00 110.04 119.87 110.00 120.00
C 108.01 126.92 105.57 133.21 101.00 139.00 Z"/>
</g>
<g fill="None" fill-opacity="0.0" stroke="#000000" stroke-opacity="0.00" stroke-width="0.3"><path d="
M 75.00 175.00 
L 111.00 175.00
L 111.00 126.00
C 106.75 135.78 96.38 142.82 95.93 153.93 C 95.47 165.03 82.95 171.01 75.00 175.00 Z"/>
</g>
<g fill="None" fill-opacity="0.0" stroke="#603C45" stroke-opacity="0.78" stroke-width="0.3"><path d="
M 22.00 140.00 
C 26.67 143.26 28.55 146.14 28.00 152.00
C 27.95 152.50 28.00 153.00 28.00 153.00
C 28.25 153.25 29.00 153.00 29.00 153.00
C 29.51 147.39 27.81 141.42 22.00 139.00
C 22.00 139.00 21.80 139.60 22.00 140.00 Z"/>
</g>
<g fill="None" fill-opacity="0.0" stroke="#847477" stroke-opacity="0.67" stroke-width="0.3"><path d="
M 95.00 145.00 
C 95.61 143.51 99.76 140.57 101.00 139.00
C 99.32 140.82 95.88 142.36 95.00 145.00 Z"/>
</g>
<g fill="None" fill-opacity="0.0" stroke="#B7A7AF" stroke-opacity="0.24" stroke-width="0.3"><path d="
M 27.00 147.00 
C 27.32 148.36 26.33 150.16 27.00 152.00
C 27.06 152.16 28.00 152.00 28.00 152.00
C 28.55 146.14 26.67 143.26 22.00 140.00
C 23.34 142.74 26.27 143.94 27.00 147.00 Z"/>
</g>
<g fill="None" fill-opacity="0.0" stroke="#D3CED2" stroke-opacity="0.14" stroke-width="0.3"><path d="
M 51.00 174.00 
C 50.81 173.59 51.00 173.00 51.00 173.00
C 48.41 172.30 45.37 171.16 43.00 170.00
C 40.93 168.99 39.56 167.38 38.00 166.00
C 36.22 164.41 34.57 162.91 33.00 161.00
C 30.99 158.55 29.24 156.15 28.00 153.00
C 28.00 153.00 27.95 152.50 28.00 152.00
C 28.00 152.00 27.06 152.16 27.00 152.00
C 29.14 163.24 40.36 171.89 51.00 174.00 Z"/>
</g>
<g fill="None" fill-opacity="0.0" stroke="#6C4651" stroke-opacity="0.62" stroke-width="0.3"><path d="
M 33.00 161.00 
C 31.50 158.69 30.46 155.54 29.00 153.00
C 29.00 153.00 28.25 153.25 28.00 153.00
C 29.24 156.15 30.99 158.55 33.00 161.00 Z"/>
</g>
<g fill="None" fill-opacity="0.0" stroke="#7F6D73" stroke-opacity="0.64" stroke-width="0.3"><path d="
M 43.00 170.00 
C 41.58 169.11 39.54 167.10 38.00 166.00
C 39.56 167.38 40.93 168.99 43.00 170.00 Z"/>
</g>
<g fill="None" fill-opacity="0.0" stroke="#C3B2B4" stroke-opacity="0.31" stroke-width="0.3"><path d="
M 51.00 174.00 
C 51.12 174.26 51.84 174.67 52.00 175.00
L 58.00 175.00
C 58.00 174.50 58.00 174.00 58.00 174.00
C 55.40 173.86 53.38 173.64 51.00 173.00
C 51.00 173.00 50.81 173.59 51.00 174.00 Z"/>
</g>
<g fill="None" fill-opacity="0.0" stroke="#8D6F75" stroke-opacity="0.83" stroke-width="0.3"><path d="
M 58.00 175.00 
L 66.00 175.00
C 66.00 174.50 66.00 174.00 66.00 174.00
C 63.35 174.00 60.65 174.14 58.00 174.00
C 58.00 174.00 58.00 174.50 58.00 175.00 Z"/>
</g>
<g fill="None" fill-opacity="0.0" stroke="#AB9299" stroke-opacity="0.52" stroke-width="0.3"><path d="
M 66.00 175.00 
L 70.00 175.00
C 70.00 175.00 69.93 174.01 70.00 174.00
C 68.68 174.09 67.32 174.00 66.00 174.00
C 66.00 174.00 66.00 174.50 66.00 175.00 Z"/>
</g>
<g fill="#000000" fill-opacity="0.00" stroke="None">
<path d="
M 0.00 102.00 
C 2.63 94.49 10.20 91.81 11.98 83.98 C 13.75 76.14 22.87 71.46 30.00 71.00
C 29.46 67.98 28.13 65.16 28.00 62.00
C 25.46 52.48 19.38 41.93 19.00 32.00
C 18.98 31.50 19.00 31.00 19.00 31.00
C 2.42 10.58 38.31 -8.95 46.92 12.08 C 55.52 33.11 53.88 49.49 62.00 70.00
C 64.13 67.57 62.47 63.18 63.00 60.00
C 63.00 56.33 63.00 52.67 63.00 49.00
C 63.00 47.00 63.00 45.00 63.00 43.00
C 63.00 39.90 63.77 36.36 64.00 34.00
C 64.00 23.24 62.59 7.93 74.08 2.08 C 85.57 -3.77 98.05 5.91 98.00 18.00
C 98.00 19.00 98.00 20.00 98.00 21.00
C 98.62 23.51 98.60 24.54 98.00 27.00
C 98.00 28.00 98.00 29.00 98.00 30.00
C 98.00 35.88 99.25 49.61 96.00 54.00
C 96.00 54.50 96.00 55.00 96.00 55.00
C 96.00 62.65 96.64 68.49 95.00 76.00 C 93.36 83.51 97.07 87.12 102.75 90.25 C 108.44 93.37 106.48 100.50 111.00 104.00
L 111.00 0.00
L 0.00 0.00
L 0.00 102.00 Z"/>
</g>
<g fill="#C9C7CA" fill-opacity="0.18" stroke="None">
<path d="
M 64.00 34.00 
C 64.00 34.50 64.00 35.50 64.00 36.00
C 64.34 36.23 65.00 36.00 65.00 36.00
C 65.00 33.35 64.86 30.65 65.00 28.00
C 65.38 20.93 66.26 13.11 70.00 7.00
C 70.97 5.41 72.32 3.78 74.00 3.00
C 75.08 2.50 76.76 2.17 78.00 2.00
C 81.20 1.55 84.51 2.16 87.00 3.00
C 88.16 3.18 88.96 3.43 90.00 4.00
C 91.72 4.94 93.02 6.40 94.00 8.00
C 95.44 10.35 96.65 13.28 97.00 16.00
C 97.06 16.49 97.00 17.50 97.00 18.00
C 97.34 18.23 98.00 18.00 98.00 18.00
C 98.05 5.91 85.57 -3.77 74.08 2.08 C 62.59 7.93 64.00 23.24 64.00 34.00 Z"/>
</g>
<g fill="#D4D7D8" fill-opacity="0.15" stroke="None">
<path d="
M 19.00 31.00 
C 18.61 28.64 18.43 26.41 18.00 24.00
C 17.47 21.05 17.36 18.94 18.00 16.00
C 18.16 14.38 18.29 12.47 19.00 11.00
C 19.72 9.50 20.83 8.93 22.00 8.00
C 27.20 3.84 33.73 2.16 40.00 6.00
C 42.27 7.39 44.69 9.75 46.00 12.00
C 56.51 30.07 51.31 55.73 62.00 74.00
C 65.03 73.02 63.70 69.36 64.00 67.00
C 64.08 64.67 64.00 62.33 64.00 60.00
C 63.99 59.93 63.00 60.00 63.00 60.00
C 62.47 63.18 64.13 67.57 62.00 70.00
C 53.88 49.49 55.52 33.11 46.92 12.08 C 38.31 -8.95 2.42 10.58 19.00 31.00 Z"/>
</g>
<g fill="#713E48" fill-opacity="0.97" stroke="None">
<path d="
M 74.00 3.00 
C 73.38 3.36 70.41 6.43 70.00 7.00
C 66.26 13.11 65.38 20.93 65.00 28.00
C 65.47 38.92 67.69 53.18 65.00 64.00
C 64.88 65.35 64.18 66.20 64.00 67.00
C 63.70 69.36 65.03 73.02 62.00 74.00
C 51.31 55.73 56.51 30.07 46.00 12.00
C 45.04 10.60 41.33 6.96 40.00 6.00
C 33.73 2.16 27.20 3.84 22.00 8.00
C 21.42 8.57 19.31 10.48 19.00 11.00
C 18.29 12.47 18.16 14.38 18.00 16.00
C 17.77 18.33 17.56 21.71 18.00 24.00
C 19.10 29.69 22.11 37.79 23.00 43.00
C 23.55 44.83 24.28 46.49 25.00 48.00
C 26.07 50.25 25.73 51.38 26.00 53.00
C 26.86 56.05 28.09 58.96 29.00 62.00
C 30.05 65.51 30.97 69.18 31.00 73.00
C 13.35 72.65 12.57 92.71 2.00 102.00
C 1.82 103.37 1.91 111.58 2.00 113.00
C 3.57 122.87 15.76 132.63 22.00 139.00
C 27.81 141.42 29.51 147.39 29.00 153.00
C 30.46 155.54 31.50 158.69 33.00 161.00
C 34.57 162.91 36.22 164.41 38.00 166.00
C 39.54 167.10 41.58 169.11 43.00 170.00
C 45.37 171.16 48.41 172.30 51.00 173.00
C 53.38 173.64 55.40 173.86 58.00 174.00
C 60.65 174.14 63.35 174.00 66.00 174.00
C 67.32 174.00 68.68 174.09 70.00 174.00
C 77.68 173.50 82.06 169.87 88.25 165.25 C 94.44 160.63 92.89 151.32 95.00 145.00
C 95.88 142.36 99.32 140.82 101.00 139.00
C 105.57 133.21 108.01 126.92 110.00 120.00
C 109.70 116.69 110.23 113.31 110.00 110.00
C 109.79 106.88 109.15 103.87 108.00 101.00
C 107.17 99.37 105.16 96.74 104.00 95.00
C 101.29 91.70 96.42 89.78 94.25 86.75 C 92.09 83.71 94.00 72.77 94.00 69.00
C 94.00 66.67 94.00 64.33 94.00 62.00
C 94.00 58.19 92.89 51.86 95.00 49.00
C 95.22 48.70 95.95 48.23 96.00 48.00
C 96.00 42.49 97.20 37.28 97.00 32.00
C 96.81 27.65 97.15 20.15 97.00 16.00
C 96.65 13.28 95.44 10.35 94.00 8.00
C 93.42 7.19 90.75 4.54 90.00 4.00
C 88.96 3.43 88.16 3.18 87.00 3.00
C 84.78 2.66 79.49 1.95 78.00 2.00
C 76.76 2.17 75.08 2.50 74.00 3.00
M 86.00 86.00 
C 82.79 87.04 78.45 85.24 76.00 85.00
C 65.06 85.00 49.51 80.63 46.00 95.00
C 30.07 90.15 51.77 106.50 45.00 114.00
C 44.35 115.35 43.30 116.38 42.00 117.00
C 21.96 126.64 4.31 80.84 29.00 78.00
C 35.06 77.30 30.64 83.45 37.00 84.00
C 37.00 82.00 37.00 80.00 37.00 78.00
C 35.62 66.79 30.66 51.13 27.07 40.93 C 23.49 30.72 16.87 9.78 32.00 9.00 C 47.13 8.23 45.94 30.57 48.00 40.00
C 49.95 48.93 51.73 58.12 54.00 67.00
C 54.93 70.63 56.95 79.46 63.03 78.97 C 69.10 78.49 69.00 68.62 69.00 64.00
C 69.00 52.70 68.98 40.52 70.00 30.00
C 70.00 20.82 74.21 -1.33 87.22 7.78 C 100.24 16.88 89.90 31.77 91.22 44.22 C 92.54 56.68 87.12 72.96 89.00 86.00
C 88.00 86.00 87.00 86.00 86.00 86.00
M 41.00 122.00 
C 47.30 120.09 48.42 111.95 54.00 115.00
C 48.88 120.91 39.21 128.45 44.00 138.00
C 48.76 137.95 47.59 126.02 54.08 122.08 C 60.57 118.15 66.87 123.14 74.00 123.00
C 75.46 122.61 77.60 119.42 76.00 118.00
C 69.86 115.06 60.29 116.37 54.92 111.08 C 49.55 105.79 46.38 98.56 52.25 92.25 C 58.13 85.95 69.45 90.68 77.00 90.00 C 84.55 89.32 93.85 90.72 99.25 95.75 C 104.64 100.79 106.08 110.12 106.00 117.00 C 105.92 123.88 100.80 131.88 96.75 136.75 C 92.69 141.61 86.42 147.25 81.77 149.77 C 77.12 152.29 62.63 157.59 70.03 159.97 C 77.43 162.36 83.20 150.82 90.00 151.00
C 84.24 178.23 38.83 175.08 32.00 150.00
C 39.15 152.73 45.58 158.86 54.00 158.00
C 53.14 150.89 41.43 151.57 36.30 146.70 C 31.18 141.82 24.70 138.23 23.00 131.00
C 27.62 131.18 31.31 126.88 33.00 123.00
C 35.86 123.35 38.39 122.73 41.00 122.00
M 12.00 97.00 
C 16.21 106.12 16.22 111.02 24.70 118.30 C 33.17 125.58 14.98 130.36 11.08 120.92 C 7.18 111.48 1.86 103.95 12.00 97.00 Z"/>
</g>
<g fill="#6C4F59" fill-opacity="0.72" stroke="None">
<path d="
M 87.00 3.00 
C 84.51 2.16 81.20 1.55 78.00 2.00
C 79.49 1.95 84.78 2.66 87.00 3.00 Z"/>
</g>
<g fill="#8B8189" fill-opacity="0.42" stroke="None">
<path d="
M 70.00 7.00 
C 70.41 6.43 73.38 3.36 74.00 3.00
C 72.32 3.78 70.97 5.41 70.00 7.00 Z"/>
</g>
<g fill="#847078" fill-opacity="0.58" stroke="None">
<path d="
M 94.00 8.00 
C 93.02 6.40 91.72 4.94 90.00 4.00
C 90.75 4.54 93.42 7.19 94.00 8.00 Z"/>
</g>
<g fill="#7A6469" fill-opacity="0.57" stroke="None">
<path d="
M 46.00 12.00 
C 44.69 9.75 42.27 7.39 40.00 6.00
C 41.33 6.96 45.04 10.60 46.00 12.00 Z"/>
</g>
<g fill="#F9F6F7" fill-opacity="1.00" stroke="None">
<path d="
M 70.00 30.00 
C 70.00 41.30 70.02 53.48 69.00 64.00
C 69.00 68.62 69.10 78.49 63.03 78.97 C 56.95 79.46 54.93 70.63 54.00 67.00
C 48.89 58.40 48.57 49.02 48.00 40.00
C 45.94 30.57 47.13 8.23 32.00 9.00 C 16.87 9.78 23.49 30.72 27.07 40.93 C 30.66 51.13 35.62 66.79 37.00 78.00
C 37.17 79.41 39.13 87.07 34.32 84.66 C 29.51 82.25 34.40 79.13 29.00 78.00
C 4.31 80.84 21.96 126.64 42.00 117.00
C 42.25 116.85 44.89 114.18 45.00 114.00
C 51.77 106.50 30.07 90.15 46.00 95.00
C 49.51 80.63 65.06 85.00 76.00 85.00
C 78.34 85.00 84.76 86.29 86.00 86.00
C 87.00 86.00 88.00 86.00 89.00 86.00
C 87.12 72.96 92.54 56.68 91.22 44.22 C 89.90 31.77 100.24 16.88 87.22 7.78 C 74.21 -1.33 70.00 20.82 70.00 30.00 Z"/>
</g>
<g fill="#A29398" fill-opacity="0.64" stroke="None">
<path d="
M 19.00 11.00 
C 19.31 10.48 21.42 8.57 22.00 8.00
C 20.83 8.93 19.72 9.50 19.00 11.00 Z"/>
</g>
<g fill="#927F83" fill-opacity="0.60" stroke="None">
<path d="
M 18.00 24.00 
C 17.56 21.71 17.77 18.33 18.00 16.00
C 17.36 18.94 17.47 21.05 18.00 24.00 Z"/>
</g>
<g fill="#67474D" fill-opacity="0.82" stroke="None">
<path d="
M 97.00 32.00 
C 96.98 31.50 97.00 30.50 97.00 30.00
C 97.00 26.00 97.00 22.00 97.00 18.00
C 97.00 17.50 97.06 16.49 97.00 16.00
C 97.15 20.15 96.81 27.65 97.00 32.00 Z"/>
</g>
<g fill="#A3999D" fill-opacity="0.29" stroke="None">
<path d="
M 97.00 30.00 
C 97.34 29.77 98.00 30.00 98.00 30.00
C 98.00 29.00 98.00 28.00 98.00 27.00
C 98.00 25.00 98.00 23.00 98.00 21.00
C 98.00 20.00 98.00 19.00 98.00 18.00
C 98.00 18.00 97.34 18.23 97.00 18.00
C 97.00 22.00 97.00 26.00 97.00 30.00 Z"/>
</g>
<g fill="#FFFFFF" fill-opacity="0.01" stroke="None">
<path d="
M 98.00 27.00 
C 98.60 24.54 98.62 23.51 98.00 21.00
C 98.00 23.00 98.00 25.00 98.00 27.00 Z"/>
</g>
<g fill="#664651" fill-opacity="0.69" stroke="None">
<path d="
M 19.00 31.00 
C 19.00 31.00 18.98 31.50 19.00 32.00
C 21.63 34.02 22.05 39.86 23.00 43.00
C 22.11 37.79 19.10 29.69 18.00 24.00
C 18.43 26.41 18.61 28.64 19.00 31.00 Z"/>
</g>
<g fill="#5F444B" fill-opacity="0.84" stroke="None">
<path d="
M 65.00 36.00 
C 65.00 45.22 65.79 54.82 65.00 64.00
C 67.69 53.18 65.47 38.92 65.00 28.00
C 64.86 30.65 65.00 33.35 65.00 36.00 Z"/>
</g>
<g fill="#A78787" fill-opacity="1.00" stroke="None">
<path d="
M 69.00 64.00 
C 70.02 53.48 70.00 41.30 70.00 30.00
C 68.98 40.52 69.00 52.70 69.00 64.00 Z"/>
</g>
<g fill="#D6D4D6" fill-opacity="0.16" stroke="None">
<path d="
M 97.00 32.00 
C 97.20 37.28 96.00 42.49 96.00 48.00
C 96.00 50.00 96.00 52.00 96.00 54.00
C 99.25 49.61 98.00 35.88 98.00 30.00
C 98.00 30.00 97.34 29.77 97.00 30.00
C 97.00 30.50 96.98 31.50 97.00 32.00 Z"/>
</g>
<g fill="#BEB7BA" fill-opacity="0.13" stroke="None">
<path d="
M 28.00 62.00 
C 28.13 62.22 29.00 62.00 29.00 62.00
C 28.09 58.96 26.86 56.05 26.00 53.00
C 25.56 51.43 25.51 49.57 25.00 48.00
C 24.28 46.49 23.55 44.83 23.00 43.00
C 22.05 39.86 21.63 34.02 19.00 32.00
C 19.38 41.93 25.46 52.48 28.00 62.00 Z"/>
</g>
<g fill="#FFFFFF" fill-opacity="0.01" stroke="None">
<path d="
M 63.00 43.00 
C 63.02 42.90 64.00 43.00 64.00 43.00
C 64.00 40.67 64.00 38.33 64.00 36.00
C 64.00 35.50 64.00 34.50 64.00 34.00
C 63.77 36.36 63.00 39.90 63.00 43.00 Z"/>
</g>
<g fill="#BEB7BD" fill-opacity="0.35" stroke="None">
<path d="
M 64.00 43.00 
C 64.00 45.00 64.00 47.00 64.00 49.00
C 64.00 52.67 64.00 56.33 64.00 60.00
C 64.00 62.33 64.08 64.67 64.00 67.00
C 64.18 66.20 64.88 65.35 65.00 64.00
C 65.79 54.82 65.00 45.22 65.00 36.00
C 65.00 36.00 64.34 36.23 64.00 36.00
C 64.00 38.33 64.00 40.67 64.00 43.00 Z"/>
</g>
<g fill="#EBD5D9" fill-opacity="1.00" stroke="None">
<path d="
M 54.00 67.00 
C 51.73 58.12 49.95 48.93 48.00 40.00
C 48.57 49.02 48.89 58.40 54.00 67.00 Z"/>
</g>
<g fill="#BFFFFF" fill-opacity="0.02" stroke="None">
<path d="
M 63.00 49.00 
C 63.02 49.10 64.00 49.00 64.00 49.00
C 64.00 47.00 64.00 45.00 64.00 43.00
C 64.00 43.00 63.02 42.90 63.00 43.00
C 63.00 45.00 63.00 47.00 63.00 49.00 Z"/>
</g>
<g fill="#60363E" fill-opacity="0.71" stroke="None">
<path d="
M 26.00 53.00 
C 25.73 51.38 26.07 50.25 25.00 48.00
C 25.51 49.57 25.56 51.43 26.00 53.00 Z"/>
</g>
<g fill="#A899A5" fill-opacity="0.38" stroke="None">
<path d="
M 95.00 49.00 
C 94.59 50.78 95.00 53.17 95.00 55.00
C 95.02 55.10 96.00 55.00 96.00 55.00
C 96.00 55.00 96.00 54.50 96.00 54.00
C 96.00 52.00 96.00 50.00 96.00 48.00
C 95.95 48.23 95.22 48.70 95.00 49.00 Z"/>
</g>
<g fill="#F4FFFF" fill-opacity="0.01" stroke="None">
<path d="
M 63.00 60.00 
C 63.00 60.00 63.99 59.93 64.00 60.00
C 64.00 56.33 64.00 52.67 64.00 49.00
C 64.00 49.00 63.02 49.10 63.00 49.00
C 63.00 52.67 63.00 56.33 63.00 60.00 Z"/>
</g>
<g fill="#755562" fill-opacity="0.81" stroke="None">
<path d="
M 94.00 62.00 
C 94.01 61.93 95.00 62.00 95.00 62.00
C 95.04 59.67 95.00 57.33 95.00 55.00
C 95.00 53.17 94.59 50.78 95.00 49.00
C 92.89 51.86 94.00 58.19 94.00 62.00 Z"/>
</g>
<g fill="#DBDBDE" fill-opacity="0.16" stroke="None">
<path d="
M 95.00 62.00 
C 94.96 64.42 94.16 67.30 94.00 69.00
C 94.00 72.77 92.09 83.71 94.25 86.75 C 96.42 89.78 101.29 91.70 104.00 95.00
C 105.60 96.95 106.98 98.47 108.00 101.00
C 109.15 103.87 109.79 106.88 110.00 110.00
C 110.01 110.06 111.00 110.00 111.00 110.00
L 111.00 104.00
C 106.48 100.50 108.44 93.37 102.75 90.25 C 97.07 87.12 93.36 83.51 95.00 76.00 C 96.64 68.49 96.00 62.65 96.00 55.00
C 96.00 55.00 95.02 55.10 95.00 55.00
C 95.00 57.33 95.04 59.67 95.00 62.00 Z"/>
</g>
<g fill="#D9DADB" fill-opacity="0.17" stroke="None">
<path d="
M 0.00 102.00 
L 0.00 111.00
C 1.23 127.20 22.17 132.93 27.00 147.00
C 26.27 143.94 23.34 142.74 22.00 140.00
C 21.80 139.60 22.00 139.00 22.00 139.00
C 15.76 132.63 3.57 122.87 2.00 113.00
C 1.54 110.08 1.34 104.88 2.00 102.00
C 12.57 92.71 13.35 72.65 31.00 73.00
C 30.97 69.18 30.05 65.51 29.00 62.00
C 29.00 62.00 28.13 62.22 28.00 62.00
C 28.13 65.16 29.46 67.98 30.00 71.00
C 22.87 71.46 13.75 76.14 11.98 83.98 C 10.20 91.81 2.63 94.49 0.00 102.00 Z"/>
</g>
<g fill="#9E8E97" fill-opacity="0.49" stroke="None">
<path d="
M 94.00 69.00 
C 94.16 67.30 94.96 64.42 95.00 62.00
C 95.00 62.00 94.01 61.93 94.00 62.00
C 94.00 64.33 94.00 66.67 94.00 69.00 Z"/>
</g>
<g fill="#C1A3A9" fill-opacity="1.00" stroke="None">
<path d="
M 29.00 78.00 
C 34.40 79.13 29.51 82.25 34.32 84.66 C 39.13 87.07 37.17 79.41 37.00 78.00
C 37.00 80.00 37.00 82.00 37.00 84.00
C 30.64 83.45 35.06 77.30 29.00 78.00 Z"/>
</g>
<g fill="#BB9DA0" fill-opacity="1.00" stroke="None">
<path d="
M 86.00 86.00 
C 84.76 86.29 78.34 85.00 76.00 85.00
C 78.45 85.24 82.79 87.04 86.00 86.00 Z"/>
</g>
<g fill="#F9F6F6" fill-opacity="1.00" stroke="None">
<path d="
M 76.00 118.00 
C 80.91 120.35 78.13 122.92 74.00 123.00
C 66.87 123.14 60.57 118.15 54.08 122.08 C 47.59 126.02 48.76 137.95 44.00 138.00
C 39.49 138.04 39.25 127.48 43.00 127.00
C 42.29 125.32 40.99 123.92 41.00 122.00
C 38.39 122.73 35.86 123.35 33.00 123.00
C 31.31 126.88 27.62 131.18 23.00 131.00
C 24.70 138.23 31.18 141.82 36.30 146.70 C 41.43 151.57 53.14 150.89 54.00 158.00
C 45.58 158.86 39.15 152.73 32.00 150.00
C 38.83 175.08 84.24 178.23 90.00 151.00
C 83.20 150.82 77.43 162.36 70.03 159.97 C 62.63 157.59 77.12 152.29 81.77 149.77 C 86.42 147.25 92.69 141.61 96.75 136.75 C 100.80 131.88 105.92 123.88 106.00 117.00 C 106.08 110.12 104.64 100.79 99.25 95.75 C 93.85 90.72 84.55 89.32 77.00 90.00 C 69.45 90.68 58.13 85.95 52.25 92.25 C 46.38 98.56 49.55 105.79 54.92 111.08 C 60.29 116.37 69.86 115.06 76.00 118.00 Z"/>
</g>
<g fill="#847D79" fill-opacity="0.62" stroke="None">
<path d="
M 108.00 101.00 
C 106.98 98.47 105.60 96.95 104.00 95.00
C 105.16 96.74 107.17 99.37 108.00 101.00 Z"/>
</g>
<g fill="#F5ECED" fill-opacity="1.00" stroke="None">
<path d="
M 12.00 97.00 
C 1.86 103.95 7.18 111.48 11.08 120.92 C 14.98 130.36 33.17 125.58 24.70 118.30 C 16.22 111.02 16.21 106.12 12.00 97.00 Z"/>
</g>
<g fill="#5B3642" fill-opacity="0.79" stroke="None">
<path d="
M 2.00 113.00 
C 1.91 111.58 1.82 103.37 2.00 102.00
C 1.34 104.88 1.54 110.08 2.00 113.00 Z"/>
</g>
<g fill="#AF8792" fill-opacity="0.78" stroke="None">
<path d="
M 110.00 120.00 
C 110.04 119.87 111.00 120.00 111.00 120.00
L 111.00 110.00
C 111.00 110.00 110.01 110.06 110.00 110.00
C 110.23 113.31 109.70 116.69 110.00 120.00 Z"/>
</g>
<g fill="#000000" fill-opacity="0.00" stroke="None">
<path d="
M 0.00 175.00 
L 52.00 175.00
C 51.84 174.67 51.12 174.26 51.00 174.00
C 40.36 171.89 29.14 163.24 27.00 152.00
C 26.33 150.16 27.32 148.36 27.00 147.00
C 22.17 132.93 1.23 127.20 0.00 111.00
L 0.00 175.00 Z"/>
</g>
<g fill="#E9CED1" fill-opacity="1.00" stroke="None">
<path d="
M 41.00 122.00 
C 40.99 123.92 42.29 125.32 43.00 127.00
C 39.25 127.48 39.49 138.04 44.00 138.00
C 39.21 128.45 48.88 120.91 54.00 115.00
C 48.42 111.95 47.30 120.09 41.00 122.00 Z"/>
</g>
<g fill="#AA7984" fill-opacity="1.00" stroke="None">
<path d="
M 42.00 117.00 
C 43.30 116.38 44.35 115.35 45.00 114.00
C 44.89 114.18 42.25 116.85 42.00 117.00 Z"/>
</g>
<g fill="#776161" fill-opacity="1.00" stroke="None">
<path d="
M 74.00 123.00 
C 78.13 122.92 80.91 120.35 76.00 118.00
C 77.60 119.42 75.46 122.61 74.00 123.00 Z"/>
</g>
<g fill="#D9D5D9" fill-opacity="0.22" stroke="None">
<path d="
M 101.00 139.00 
C 99.76 140.57 95.61 143.51 95.00 145.00
C 92.89 151.32 94.44 160.63 88.25 165.25 C 82.06 169.87 77.68 173.50 70.00 174.00
C 69.93 174.01 70.00 175.00 70.00 175.00
L 75.00 175.00
C 82.95 171.01 95.47 165.03 95.93 153.93 C 96.38 142.82 106.75 135.78 111.00 126.00
L 111.00 120.00
C 111.00 120.00 110.04 119.87 110.00 120.00
C 108.01 126.92 105.57 133.21 101.00 139.00 Z"/>
</g>
<g fill="#000000" fill-opacity="0.00" stroke="None">
<path d="
M 75.00 175.00 
L 111.00 175.00
L 111.00 126.00
C 106.75 135.78 96.38 142.82 95.93 153.93 C 95.47 165.03 82.95 171.01 75.00 175.00 Z"/>
</g>
<g fill="#603C45" fill-opacity="0.78" stroke="None">
<path d="
M 22.00 140.00 
C 26.67 143.26 28.55 146.14 28.00 152.00
C 27.95 152.50 28.00 153.00 28.00 153.00
C 28.25 153.25 29.00 153.00 29.00 153.00
C 29.51 147.39 27.81 141.42 22.00 139.00
C 22.00 139.00 21.80 139.60 22.00 140.00 Z"/>
</g>
<g fill="#847477" fill-opacity="0.67" stroke="None">
<path d="
M 95.00 145.00 
C 95.61 143.51 99.76 140.57 101.00 139.00
C 99.32 140.82 95.88 142.36 95.00 145.00 Z"/>
</g>
<g fill="#B7A7AF" fill-opacity="0.24" stroke="None">
<path d="
M 27.00 147.00 
C 27.32 148.36 26.33 150.16 27.00 152.00
C 27.06 152.16 28.00 152.00 28.00 152.00
C 28.55 146.14 26.67 143.26 22.00 140.00
C 23.34 142.74 26.27 143.94 27.00 147.00 Z"/>
</g>
<g fill="#D3CED2" fill-opacity="0.14" stroke="None">
<path d="
M 51.00 174.00 
C 50.81 173.59 51.00 173.00 51.00 173.00
C 48.41 172.30 45.37 171.16 43.00 170.00
C 40.93 168.99 39.56 167.38 38.00 166.00
C 36.22 164.41 34.57 162.91 33.00 161.00
C 30.99 158.55 29.24 156.15 28.00 153.00
C 28.00 153.00 27.95 152.50 28.00 152.00
C 28.00 152.00 27.06 152.16 27.00 152.00
C 29.14 163.24 40.36 171.89 51.00 174.00 Z"/>
</g>
<g fill="#6C4651" fill-opacity="0.62" stroke="None">
<path d="
M 33.00 161.00 
C 31.50 158.69 30.46 155.54 29.00 153.00
C 29.00 153.00 28.25 153.25 28.00 153.00
C 29.24 156.15 30.99 158.55 33.00 161.00 Z"/>
</g>
<g fill="#7F6D73" fill-opacity="0.64" stroke="None">
<path d="
M 43.00 170.00 
C 41.58 169.11 39.54 167.10 38.00 166.00
C 39.56 167.38 40.93 168.99 43.00 170.00 Z"/>
</g>
<g fill="#C3B2B4" fill-opacity="0.31" stroke="None">
<path d="
M 51.00 174.00 
C 51.12 174.26 51.84 174.67 52.00 175.00
L 58.00 175.00
C 58.00 174.50 58.00 174.00 58.00 174.00
C 55.40 173.86 53.38 173.64 51.00 173.00
C 51.00 173.00 50.81 173.59 51.00 174.00 Z"/>
</g>
<g fill="#8D6F75" fill-opacity="0.83" stroke="None">
<path d="
M 58.00 175.00 
L 66.00 175.00
C 66.00 174.50 66.00 174.00 66.00 174.00
C 63.35 174.00 60.65 174.14 58.00 174.00
C 58.00 174.00 58.00 174.50 58.00 175.00 Z"/>
</g>
<g fill="#AB9299" fill-opacity="0.52" stroke="None">
<path d="
M 66.00 175.00 
L 70.00 175.00
C 70.00 175.00 69.93 174.01 70.00 174.00
C 68.68 174.09 67.32 174.00 66.00 174.00
C 66.00 174.00 66.00 174.50 66.00 175.00 Z"/>
</g>
</svg>